<svg width="22" height="22" viewBox="0 0 22 22" fill="none" xmlns="http://www.w3.org/2000/svg">
<path fill-rule="evenodd" clip-rule="evenodd" d="M7.63063 1.97028C5.87505 3.45898 5.46772 3.65563 3.74025 3.83821C1.49315 4.07693 1.53527 4.0629 1.61952 4.5123C1.70377 4.98986 1.83025 6.80158 1.87238 7.27908C0.187018 9.20321 0.144859 9.1189 0.299343 10.2004C0.355524 10.6358 0.243181 14.6806 0.524071 18.4304C0.594296 19.3715 0.903242 19.8068 1.77405 20.2562C3.45934 21.0989 4.84977 20.6074 3.51555 19.6383C2.32177 18.7675 2.20942 18.3883 2.08305 14.9334C2.04087 13.8098 1.94254 12.2789 1.8583 11.5205C1.52125 8.51504 2.54653 9.76495 2.50435 10.0178C2.4201 10.6919 2.75715 11.2256 4.2459 11.9981C5.14475 12.4615 8.50132 14.6103 9.8356 15.0598C11.8159 15.748 12.6304 14.512 17.2932 11.3239C18.15 10.7481 18.7117 10.2284 19.0347 9.72283C19.8493 8.47285 19.9336 14.807 19.1331 17.5035C18.5994 19.3012 18.4449 19.3574 13.3187 19.4838C8.06601 19.6102 5.56605 19.9473 5.69242 20.3265C6.00142 21.2534 17.6444 21.4641 19.4842 20.5933C20.2988 20.2001 21.1836 18.2057 21.3521 17.2367C21.6049 15.8041 21.619 13.5991 21.3943 10.6638C21.2398 8.55716 21.0291 8.09368 19.8634 7.05438C19.4561 6.68923 19.428 6.00106 19.7931 4.62465C19.9336 4.09101 20.1162 3.23428 18.8381 3.23428C17.5601 3.23428 15.5096 3.31853 15.1584 3.31853C14.6528 3.00958 12.5603 1.81575 12.1951 1.4506C11.8721 1.1978 9.90583 0.0461596 7.63063 1.97028ZM12.1951 2.75678C12.6726 3.06573 13.0658 3.33261 13.0658 3.37473C13.0658 3.40283 11.858 3.43088 10.3833 3.43088C7.51822 3.43088 7.46208 3.40283 8.45926 2.78482C9.89181 1.87195 10.8047 1.87195 12.1951 2.75678ZM18.1921 8.71163C18.0797 9.27343 17.4758 9.52623 17.0685 9.20321C16.7736 8.97851 16.4927 8.92231 15.3551 8.92231C15.004 8.92231 8.9648 8.89421 6.184 9.09086C3.74024 9.25936 5.04643 10.2284 6.33853 10.397C7.41995 10.5374 16.1276 10.2004 15.959 10.4672C15.8748 10.6077 13.122 12.6301 11.3103 14.1047C10.9311 13.9081 3.86667 10.3127 3.59979 10.3127C3.36107 10.3127 3.19252 4.86343 3.2066 4.84941C3.24872 4.7932 11.4085 4.5685 18.1078 4.5685C18.3325 6.64711 18.4589 7.36338 18.1921 8.71163ZM11.3384 6.5909C10.4536 7.47573 11.4226 7.81278 14.6669 7.75664C17.5741 7.70043 17.7988 7.64429 17.2371 6.99823C16.7455 6.40833 11.844 6.07128 11.3384 6.5909Z" fill="#006B99"/>
</svg>
