<svg width="24" height="20" viewBox="0 0 24 20" fill="none" xmlns="http://www.w3.org/2000/svg">
<path d="M23.6133 10.5536C22.585 4.21304 18.1762 -0.445067 14.2503 0.661039C13.4246 0.894697 12.7703 1.43998 10.1375 4.16632C8.76655 5.58398 8.34589 5.92673 8.11223 5.84882C5.5573 4.85176 3.95264 6.09807 3.96818 9.08926C3.96818 10.6783 4.04614 11.0989 4.56023 12.7036C4.70045 13.1242 2.92439 14.7755 0.696624 17.1279C-1.09495 18.7637 0.790081 19.2623 3.48527 18.3899C8.12777 16.8943 7.41114 16.9566 9.01574 17.8602C11.6486 19.3402 15.076 19.8854 16.6339 19.0754C16.9455 18.9195 17.1169 18.5924 17.0857 18.2341C17.0857 18.2185 16.9455 16.6918 16.9455 16.7073C19.0798 15.8505 21.6503 14.9781 22.8655 14.1056C24.0806 13.2177 23.9092 12.3608 23.6133 10.5536ZM3.46973 16.941C3.29833 16.941 5.33917 14.6976 5.47939 14.5419C5.51052 14.7288 5.94676 15.4299 6.56989 15.8505C6.58548 15.9284 3.75017 16.941 3.46973 16.941ZM19.2511 13.5292C18.3787 13.7318 15.6368 14.8223 14.671 15.3675C13.9699 15.757 13.9387 15.8038 14.0322 16.3023C14.3749 18.2029 14.4684 18.0939 12.8171 17.6732C9.07811 16.7074 4.74717 9.36963 6.46086 6.8926C6.94377 6.19157 7.61367 7.07954 7.66045 8.49726C7.70717 9.99282 9.03133 12.4543 9.96608 13.0619C10.5114 13.4202 10.7917 12.984 10.6515 12.7036C8.84439 9.36969 9.14042 8.48166 9.26505 7.98316C9.26505 7.98316 13.2377 3.96379 13.5649 3.60545C14.7644 2.32801 15.8238 2.26569 16.9922 3.38738C19.1421 5.47494 20.7935 8.79323 21.2141 11.8311C21.3076 12.6413 20.6533 13.2177 19.2511 13.5292Z" fill="#006B99"/>
<path d="M19.3603 11.1614C17.5688 12.1117 14.0011 5.50625 15.6525 4.30665C16.4003 3.76137 15.2474 3.09147 14.6242 3.79256C13.5805 4.97656 14.5932 11.4574 18.8929 12.2052C19.6719 12.3454 20.3106 12.2052 20.3729 11.6755C20.4353 11.2237 19.8433 10.8966 19.3603 11.1614Z" fill="#006B99"/>
</svg>
