<svg width="116" height="32" viewBox="0 0 116 32" fill="none" xmlns="http://www.w3.org/2000/svg">
<path d="M53.3207 21.4056C53.4999 21.4056 53.6548 21.4749 53.7851 21.6133L55.0807 23.018C54.3637 23.9056 53.4795 24.5856 52.4284 25.0578C51.3855 25.5301 50.1307 25.7663 48.6639 25.7663C47.3521 25.7663 46.1706 25.5424 45.1195 25.0945C44.0765 24.6466 43.1843 24.0236 42.4428 23.2256C41.7013 22.4276 41.1309 21.4749 40.7317 20.3674C40.3405 19.2599 40.145 18.0507 40.145 16.7396C40.145 15.4123 40.365 14.199 40.805 13.0996C41.245 11.9922 41.8642 11.0395 42.6627 10.2414C43.4613 9.44337 44.4147 8.82449 45.5228 8.38472C46.6391 7.93692 47.8695 7.71293 49.2139 7.71293C50.5258 7.71293 51.6707 7.92465 52.6484 8.34815C53.6344 8.76345 54.4777 9.31715 55.1784 10.0093L54.0785 11.5362C54.0132 11.6339 53.9277 11.7194 53.8218 11.7927C53.724 11.866 53.5855 11.9026 53.4062 11.9026C53.2188 11.9026 53.0273 11.8293 52.8318 11.6827C52.6362 11.5362 52.3877 11.3774 52.0862 11.2064C51.7847 11.0353 51.4017 10.8766 50.9373 10.73C50.481 10.5834 49.8984 10.5101 49.1895 10.5101C48.3584 10.5101 47.5924 10.6567 46.8917 10.9498C46.1991 11.2348 45.6002 11.6461 45.095 12.1835C44.598 12.721 44.2069 13.3765 43.9217 14.1501C43.6446 14.9155 43.5061 15.7787 43.5061 16.7396C43.5061 17.7331 43.6446 18.6167 43.9217 19.3902C44.2069 20.1638 44.5898 20.8153 45.0705 21.3445C45.5513 21.8739 46.1176 22.281 46.7694 22.566C47.4213 22.8429 48.1221 22.9813 48.8717 22.9813C49.3199 22.9813 49.7232 22.9569 50.0817 22.908C50.4484 22.8592 50.7825 22.7818 51.084 22.676C51.3936 22.5701 51.6829 22.4358 51.9518 22.2729C52.2288 22.1019 52.5018 21.8943 52.7706 21.6499C52.8521 21.5766 52.9377 21.5197 53.0273 21.479C53.117 21.43 53.2147 21.4056 53.3207 21.4056Z" fill="#969FA4"/>
<path d="M66.7383 25.5708H65.3817C65.0965 25.5708 64.8723 25.5301 64.7094 25.4487C64.5465 25.3591 64.4242 25.184 64.3428 24.9235L64.0738 24.0318C63.756 24.3168 63.4424 24.5692 63.1327 24.7891C62.8312 25.0009 62.5176 25.18 62.1916 25.3266C61.8657 25.4731 61.5193 25.5831 61.1527 25.6564C60.786 25.7296 60.3786 25.7663 59.9305 25.7663C59.4008 25.7663 58.912 25.6971 58.4638 25.5586C58.0156 25.4121 57.6286 25.1962 57.3027 24.9113C56.9849 24.6263 56.7364 24.272 56.5571 23.8486C56.3778 23.4252 56.2882 22.9325 56.2882 22.3706C56.2882 21.8983 56.4104 21.4342 56.6549 20.9782C56.9075 20.5139 57.323 20.0986 57.9015 19.7322C58.4801 19.3576 59.2501 19.0482 60.2116 18.8039C61.1731 18.5596 62.3668 18.4212 63.7927 18.3886V17.6557C63.7927 16.817 63.6135 16.1981 63.2549 15.7991C62.9046 15.392 62.3913 15.1884 61.7149 15.1884C61.226 15.1884 60.8187 15.2453 60.4927 15.3594C60.1668 15.4734 59.8816 15.6037 59.6371 15.7502C59.4008 15.8887 59.1808 16.0149 58.9771 16.1288C58.7734 16.2429 58.5494 16.2999 58.3049 16.2999C58.1012 16.2999 57.926 16.2469 57.7793 16.1411C57.6327 16.0352 57.5145 15.9049 57.4249 15.7502L56.8748 14.7853C58.3171 13.4661 60.0567 12.8065 62.0938 12.8065C62.8272 12.8065 63.479 12.9286 64.0494 13.1729C64.628 13.4091 65.1168 13.743 65.5161 14.1745C65.9154 14.598 66.2168 15.1069 66.4205 15.7014C66.6324 16.2959 66.7383 16.9473 66.7383 17.6557V25.5708ZM60.8716 23.6898C61.1812 23.6898 61.4664 23.6613 61.7272 23.6043C61.9879 23.5473 62.2324 23.4618 62.4605 23.3478C62.6968 23.2338 62.9208 23.0954 63.1327 22.9325C63.3527 22.7615 63.5727 22.562 63.7927 22.3339V20.2208C62.9127 20.2615 62.1753 20.3389 61.5805 20.4529C60.9938 20.5587 60.5212 20.6972 60.1627 20.8682C59.8042 21.0392 59.5475 21.2387 59.3927 21.4667C59.246 21.6947 59.1727 21.9431 59.1727 22.2118C59.1727 22.7411 59.3275 23.1197 59.6371 23.3478C59.9549 23.5758 60.3664 23.6898 60.8716 23.6898Z" fill="#969FA4"/>
<path d="M69.2179 25.5708V13.0386H70.9902C71.2998 13.0386 71.5157 13.0955 71.6379 13.2096C71.7601 13.3236 71.8416 13.519 71.8824 13.7959L72.0658 15.3105C72.5138 14.5369 73.0394 13.9261 73.6424 13.4783C74.2454 13.0305 74.9217 12.8065 75.6713 12.8065C76.2906 12.8065 76.8039 12.949 77.2113 13.234L76.8202 15.4937C76.7958 15.6403 76.7428 15.7461 76.6613 15.8113C76.5799 15.8683 76.4699 15.8968 76.3314 15.8968C76.2091 15.8968 76.0421 15.8683 75.8302 15.8113C75.6183 15.7543 75.3373 15.7258 74.9869 15.7258C74.3595 15.7258 73.8217 15.9009 73.3735 16.251C72.9253 16.5931 72.5465 17.0979 72.2369 17.7657V25.5708H69.2179Z" fill="#969FA4"/>
<path d="M87.5317 25.5708C87.1408 25.5708 86.8844 25.3876 86.7616 25.0212L86.5177 23.8119C86.2571 24.1051 85.9841 24.3697 85.6987 24.6059C85.4132 24.8421 85.1037 25.0456 84.7693 25.2166C84.444 25.3876 84.0897 25.5179 83.7063 25.6075C83.3313 25.7052 82.9239 25.7541 82.4841 25.7541C81.7997 25.7541 81.1723 25.6115 80.6019 25.3266C80.0315 25.0416 79.5386 24.6303 79.123 24.0929C78.7156 23.5473 78.3978 22.8754 78.1697 22.0774C77.9496 21.2794 77.8397 20.3674 77.8397 19.3414C77.8397 18.4131 77.966 17.5499 78.2185 16.7519C78.4711 15.9538 78.8337 15.2617 79.3063 14.6753C79.7789 14.089 80.3452 13.633 81.0052 13.3073C81.6652 12.9734 82.4069 12.8065 83.23 12.8065C83.9304 12.8065 84.5295 12.9205 85.0265 13.1485C85.5236 13.3684 85.9675 13.6656 86.3583 14.0402V7.41979H89.3779V25.5708H87.5317ZM83.5105 23.36C84.1378 23.36 84.6722 23.2297 85.112 22.9691C85.5518 22.7085 85.9675 22.338 86.3583 21.8576V16.2388C86.0165 15.8235 85.6414 15.5304 85.234 15.3594C84.8349 15.1884 84.4034 15.1029 83.9387 15.1029C83.4823 15.1029 83.0666 15.1884 82.6915 15.3594C82.3256 15.5304 82.0119 15.7909 81.7508 16.1411C81.4982 16.4831 81.3026 16.9229 81.1641 17.4603C81.0256 17.9896 80.9563 18.6167 80.9563 19.3414C80.9563 20.0743 81.0134 20.6972 81.1274 21.2102C81.2497 21.715 81.4208 22.1303 81.6407 22.4561C81.8608 22.7737 82.1297 23.0058 82.4476 23.1523C82.7654 23.2907 83.1197 23.36 83.5105 23.36Z" fill="#969FA4"/>
<path d="M97.3422 12.8431C98.1322 12.8431 98.8574 12.9693 99.5171 13.2218C100.186 13.4742 100.76 13.8447 101.241 14.3333C101.722 14.8138 102.096 15.4082 102.365 16.1167C102.634 16.817 102.769 17.619 102.769 18.5229C102.769 18.751 102.757 18.9423 102.732 19.097C102.716 19.2437 102.679 19.3617 102.622 19.4513C102.573 19.5327 102.504 19.5938 102.414 19.6345C102.324 19.6671 102.211 19.6833 102.072 19.6833H94.3226C94.4123 20.97 94.7591 21.9146 95.3615 22.5172C95.9648 23.1197 96.763 23.4211 97.7571 23.4211C98.2467 23.4211 98.6657 23.364 99.0167 23.25C99.3752 23.1361 99.6847 23.0099 99.9453 22.8714C100.214 22.733 100.446 22.6068 100.642 22.4927C100.846 22.3787 101.041 22.3217 101.229 22.3217C101.351 22.3217 101.457 22.3462 101.547 22.395C101.636 22.4439 101.714 22.5131 101.778 22.6027L102.659 23.702C102.324 24.0929 101.95 24.4227 101.534 24.6914C101.119 24.952 100.683 25.1637 100.227 25.3266C99.7785 25.4813 99.318 25.5912 98.845 25.6564C98.3811 25.7215 97.9289 25.7541 97.4883 25.7541C96.617 25.7541 95.8063 25.6115 95.0562 25.3266C94.3069 25.0334 93.6547 24.6059 93.1004 24.044C92.5469 23.474 92.1104 22.7737 91.7926 21.9431C91.4748 21.1044 91.3163 20.1353 91.3163 19.036C91.3163 18.181 91.4549 17.3789 91.732 16.6297C92.0092 15.8724 92.4042 15.2168 92.9178 14.6631C93.4389 14.1013 94.0704 13.6575 94.8122 13.3317C95.5615 13.006 96.4046 12.8431 97.3422 12.8431ZM97.4028 15.0051C96.5232 15.0051 95.8345 15.2535 95.3375 15.7502C94.8404 16.2469 94.5226 16.9513 94.384 17.8633H100.056C100.056 17.4725 100.003 17.1061 99.8963 16.7641C99.7901 16.4139 99.6275 16.1085 99.4076 15.848C99.1877 15.5873 98.9105 15.3837 98.5761 15.2372C98.2426 15.0825 97.8509 15.0051 97.4028 15.0051Z" fill="#969FA4"/>
<path d="M113.553 25.5708C113.162 25.5708 112.906 25.3876 112.783 25.0212L112.539 23.8119C112.278 24.1051 112.005 24.3697 111.72 24.6059C111.435 24.8421 111.125 25.0456 110.791 25.2166C110.465 25.3876 110.11 25.5179 109.728 25.6075C109.353 25.7052 108.945 25.7541 108.505 25.7541C107.821 25.7541 107.193 25.6115 106.623 25.3266C106.053 25.0416 105.56 24.6303 105.144 24.0929C104.736 23.5473 104.419 22.8754 104.19 22.0774C103.971 21.2794 103.861 20.3674 103.861 19.3414C103.861 18.4131 103.987 17.5499 104.239 16.7519C104.493 15.9538 104.855 15.2617 105.327 14.6753C105.8 14.089 106.366 13.633 107.027 13.3073C107.686 12.9734 108.428 12.8065 109.251 12.8065C109.952 12.8065 110.551 12.9205 111.048 13.1485C111.545 13.3684 111.989 13.6656 112.38 14.0402V7.41979H115.398V25.5708H113.553ZM109.532 23.36C110.159 23.36 110.694 23.2297 111.133 22.9691C111.573 22.7085 111.989 22.338 112.38 21.8576V16.2388C112.038 15.8235 111.663 15.5304 111.255 15.3594C110.856 15.1884 110.424 15.1029 109.96 15.1029C109.504 15.1029 109.088 15.1884 108.713 15.3594C108.346 15.5304 108.032 15.7909 107.772 16.1411C107.52 16.4831 107.324 16.9229 107.185 17.4603C107.047 17.9896 106.978 18.6167 106.978 19.3414C106.978 20.0743 107.034 20.6972 107.149 21.2102C107.271 21.715 107.442 22.1303 107.662 22.4561C107.882 22.7737 108.151 23.0058 108.469 23.1523C108.787 23.2907 109.141 23.36 109.532 23.36Z" fill="#969FA4"/>
<path fill-rule="evenodd" clip-rule="evenodd" d="M6.07577 5.8814C6.6206 4.01781 8.57392 2.94846 10.4387 3.49294L22.1902 6.92423C24.055 7.46872 25.125 9.4209 24.5802 11.2844L19.3182 29.2833C18.7733 31.1469 16.82 32.2162 14.9552 31.6717L3.20373 28.2404C1.33896 27.696 0.26894 25.7438 0.81377 23.8802L6.07577 5.8814ZM9.67986 6.08859C9.24954 5.96294 8.7988 6.20971 8.67308 6.63978L3.41105 24.6386C3.28532 25.0686 3.53224 25.5192 3.96257 25.6448L15.7141 29.076C16.1444 29.2017 16.5952 28.955 16.7209 28.5249L21.983 10.5261C22.1087 10.096 21.8617 9.64555 21.4314 9.51991L9.67986 6.08859Z" fill="#969FA4"/>
<path fill-rule="evenodd" clip-rule="evenodd" d="M13.417 2.71673C13.9617 0.853136 15.9151 -0.21622 17.7799 0.328267L29.5314 3.75956C31.3961 4.30404 32.4662 6.25619 31.9214 8.11977L26.6594 26.1185C26.1145 27.9822 24.1611 29.0515 22.2964 28.5071L10.5449 25.0757C8.68014 24.5312 7.61013 22.5791 8.15496 20.7155L13.417 2.71673ZM17.0211 2.92392C16.5907 2.79827 16.1399 3.04504 16.0142 3.4751L10.7522 21.4739C10.6265 21.904 10.8734 22.3544 11.3038 22.4801L23.0553 25.9114C23.4856 26.037 23.9364 25.7902 24.0621 25.3602L29.3241 7.36141C29.4498 6.93135 29.2029 6.48086 28.7725 6.35521L17.0211 2.92392Z" fill="#969FA4"/>
</svg>
