<svg width="42" height="31" viewBox="0 0 42 31" fill="none" xmlns="http://www.w3.org/2000/svg">
<path d="M31.1518 25.0589C31.6066 25.2539 32.1047 25.1456 32.4729 24.8207C32.7977 24.5392 34.3353 23.1315 34.92 22.785C35.6563 22.3519 36.2194 14.967 36.2194 14.9887C36.2627 14.5555 36.1111 14.1224 35.8079 13.8192C32.841 10.809 32.6894 10.4191 29.1594 9.98605C28.1848 9.85615 27.5352 9.89945 27.4053 10.116C26.8638 10.9822 29.311 12.5631 31.2384 12.5631C31.9747 12.5631 34.2486 14.967 34.0321 15.5084C33.8805 15.8766 33.9454 18.2371 33.9238 20.8359L32.9492 21.334C32.4078 21.6156 31.7365 22.1137 31.455 22.4818C30.9569 23.1099 30.9136 23.1099 30.069 22.6118C29.2677 22.1353 27.8816 22.157 27.8816 22.6551C27.8816 23.0882 29.5925 24.4526 30.7187 24.9073L31.1518 25.0589Z" fill="#000001"/>
<path d="M41.2222 6.65065C41.2438 5.97935 40.9406 5.32965 40.4208 4.91815C39.4463 4.16015 38.3851 4.07355 37.8654 4.67995C36.2195 6.67235 29.5926 5.95765 22.9441 3.05565C18.3746 1.06325 13.0904 0.175349 8.5425 0.630149C-1.33287 1.60465 -0.31502 1.84295 0.63787 26.0332L1.69902 26.5746C2.73853 27.116 2.82511 27.116 5.7704 26.4663C10.4699 25.4268 18.1363 25.5134 22.5976 26.6179C26.604 27.6141 27.427 27.4409 25.7811 25.8816C22.7492 23.0229 10.6648 21.377 5.7704 23.1745C4.7742 23.5427 3.8431 23.8242 3.6915 23.8242C3.1717 23.8242 4.1462 17.3056 3.6481 3.81365C3.6698 3.81365 13.8916 0.933349 21.493 4.80985C25.6078 6.91055 30.6321 8.27485 34.4004 8.29655H38.0603C38.0603 25.9033 38.2119 27.7442 37.5839 27.7442C37.3024 27.7442 35.5915 27.5491 33.7723 27.3109C30.2423 26.8561 29.7442 26.9429 30.4588 27.9606C31.1518 28.9352 35.5049 29.9963 38.2336 30.1263C40.7458 30.2562 40.4425 29.888 40.5508 28.3504C40.6591 26.4663 40.5508 27.9606 41.2222 6.65065Z" fill="#000001"/>
<path d="M8.1742 8.36155C8.8455 8.18825 9.9934 7.21375 10.1883 6.65065C10.2749 6.36915 11.0762 6.39075 13.5451 6.67235C19.6522 7.38695 16.8368 4.85315 15.6674 4.52835C14.303 4.13855 12.1807 4.29015 9.7552 4.65825C9.3004 4.72325 8.759 5.06975 8.5641 5.43795C8.3692 5.80605 7.3729 6.41245 6.6799 7.12715C4.7958 9.01125 4.6009 18.4318 6.42 18.7133C7.9143 18.9299 8.4124 19.1248 9.1704 19.8394C10.1016 20.6841 10.2099 20.5974 16.382 20.5974C17.2266 20.5974 17.6814 18.5184 12.3755 18.3018C10.1882 18.2152 9.7118 18.0853 8.9322 17.4356C8.4341 17.0241 7.8927 16.6776 7.7411 16.6776C7.0697 16.6776 7.5028 8.51315 8.1742 8.36155Z" fill="#000001"/>
<path d="M21.0814 20.0345C21.3197 19.7313 21.4929 18.5618 21.4929 18.4535C21.4929 18.3453 22.1426 18.3886 22.8573 18.1937C25.4994 17.479 25.4344 14.2738 22.749 12.7579C22.0127 12.3464 19.3273 12.1948 19.6954 10.5489C19.9553 9.33615 20.8649 9.74765 21.8394 10.2241C22.5108 10.5273 23.0955 10.8738 23.6802 11.1769C24.7197 11.7184 24.6981 10.3323 24.0051 9.74765C23.5719 9.37955 22.9439 9.01135 22.3159 8.72985C22.186 8.66485 22.4457 8.03685 22.2292 7.58205C21.7744 6.65075 20.4751 6.23935 20.4751 7.04065C20.4751 7.14885 20.2801 8.01515 20.2801 8.01515C20.2584 8.01515 17.9629 6.95395 17.0967 9.50945C16.6635 10.7871 17.2049 12.6496 18.8292 13.1477C20.1286 13.5592 22.4891 13.9706 22.3159 15.3133C22.0777 17.1758 18.9158 15.8981 18.8941 15.8981C16.6418 15.335 15.1043 16.0713 17.768 17.2624C18.2228 17.479 19.2406 17.7389 19.4572 17.9338C19.6738 18.1287 19.4355 19.3631 19.4355 19.5797C19.4788 20.5326 20.5617 20.7491 21.0814 20.0345Z" fill="#000001"/>
</svg>
