<svg width="124" height="33" viewBox="0 0 124 33" fill="none" xmlns="http://www.w3.org/2000/svg">
<path fill-rule="evenodd" clip-rule="evenodd" d="M17.8116 2.21949C18.1481 2.11139 18.5141 2.14707 18.8238 2.3182C19.5012 2.69259 20.0166 3.34248 20.4 3.99275C20.7989 4.6692 21.1333 5.48002 21.3934 6.34138C21.9115 8.05682 22.1802 10.1242 21.9905 12.0113C21.9189 12.7237 21.2869 13.2427 20.5789 13.1707C19.8708 13.0987 19.3549 12.4628 19.4266 11.7505C19.5768 10.2554 19.3624 8.53475 18.9277 7.09513C18.8076 6.69775 18.6744 6.33351 18.5336 6.01029C18.1129 7.09178 17.6801 8.28347 17.4871 8.92979C17.2823 9.61546 16.5638 10.0043 15.8823 9.79825C15.2008 9.5922 14.8143 8.86934 15.0191 8.18366C15.3945 6.92637 16.5278 3.96268 17.0435 2.89001C17.1973 2.57001 17.475 2.3276 17.8116 2.21949Z" fill="#969FA4"/>
<path fill-rule="evenodd" clip-rule="evenodd" d="M13.7431 8.14857C13.9994 7.32906 14.8676 6.87377 15.6821 7.13168C16.4864 7.38631 17.2718 7.72744 18.0357 8.12322L18.0403 8.12563C21.6088 9.98973 24.1965 13.1361 24.9025 16.382C24.9131 16.4226 24.9291 16.4572 24.9453 16.4824C24.9608 16.5065 24.9721 16.5155 24.9721 16.5155L24.9814 16.5221L27.6136 18.4249L27.6175 18.4277C28.5542 19.1093 28.7955 20.225 28.75 21.0293C28.7046 21.8314 28.3379 22.9261 27.3046 23.4867L27.2976 23.4905C25.9504 24.2124 24.3235 24.4362 21.8402 23.9933C21.8289 23.9913 21.8176 23.9892 21.8064 23.987C21.7483 23.9752 21.6871 23.9657 21.5815 23.9494L21.5734 23.9481C21.4909 23.9354 21.3709 23.9167 21.2437 23.8901C19.3352 23.5857 18.0651 23.6196 17.28 23.8322C16.5799 24.0218 16.3993 24.3006 16.3152 24.5752C15.7289 26.5241 16.2652 27.669 16.993 29.2232C17.1091 29.4709 17.2299 29.7291 17.3519 30.0026C17.7016 30.7864 17.3536 31.707 16.5745 32.0588C15.7954 32.4107 14.8804 32.0604 14.5307 31.2767C14.4421 31.078 14.3411 30.8678 14.234 30.6451C13.4712 29.0579 12.4032 26.8353 13.3564 23.6703L13.3578 23.6657C13.8165 22.1596 14.973 21.2349 16.4764 20.8278C17.8912 20.4447 19.6834 20.4877 21.7719 20.8243C21.8025 20.8293 21.8329 20.8351 21.8631 20.8418C21.8967 20.8494 21.9443 20.8576 22.0465 20.8735C22.054 20.8746 22.0619 20.8759 22.0702 20.8771C22.153 20.8899 22.2719 20.9082 22.3947 20.9324C24.2161 21.2554 25.0992 21.084 25.6523 20.8383L23.181 19.0518C22.5001 18.5652 22.0682 17.8393 21.8917 17.0928C21.8892 17.0824 21.8869 17.0719 21.8847 17.0616C21.4184 14.8909 19.5499 12.4206 16.6175 10.8881C15.9757 10.5557 15.3554 10.29 14.7538 10.0995C13.9392 9.84155 13.4868 8.9681 13.7431 8.14857Z" fill="#969FA4"/>
<path fill-rule="evenodd" clip-rule="evenodd" d="M10.0909 4.75535C10.0571 5.2168 10.0212 5.66704 9.98715 6.08771C9.97491 6.23844 9.96307 6.38386 9.95163 6.52364C9.86955 7.53006 9.81139 8.24347 9.81139 8.53451C9.81139 9.1174 9.51379 9.78698 8.83683 10.128C8.07955 10.5094 7.03398 11.0967 6.1006 11.7916C6.08784 11.8011 6.07513 11.8106 6.06248 11.82C6.32488 11.8915 6.53114 11.9665 6.66585 12.02C7.34809 12.278 7.65762 12.8958 7.70279 13.3963C7.74429 13.8561 7.59225 14.3491 7.22934 14.7147C7.18104 14.7634 7.12958 14.8088 7.07531 14.8506C6.80417 15.0594 5.85286 15.8381 5.00758 17.0582C4.57147 17.6876 4.17836 18.4121 3.91408 19.221C5.15946 19.0113 6.44674 20.228 5.86122 21.6475C5.37476 22.9277 4.0883 26.7704 4.38188 30.7261C4.44547 31.5829 3.80667 32.3293 2.95509 32.3933C2.1035 32.4573 1.36161 31.8146 1.29802 30.9578C1.09227 28.1854 1.53697 25.5147 2.04311 23.5115C1.84711 23.4895 1.65469 23.4346 1.47441 23.3474C0.942806 23.0903 0.513127 22.5387 0.490897 21.8309C0.35399 19.0937 1.37719 16.8571 2.47069 15.2789C2.54323 15.1742 2.61633 15.0721 2.6897 14.9724C2.3286 14.9035 2.00517 14.7229 1.76598 14.4819C1.29692 14.0094 1.08958 13.2503 1.40161 12.5302C1.97368 11.1952 3.1848 10.0919 4.26108 9.29061C5.10703 8.6608 6.00305 8.12153 6.75695 7.71061C6.78499 7.29852 6.82553 6.80426 6.86804 6.28596C6.88025 6.13704 6.89263 5.98614 6.90492 5.83464C7.00029 4.65906 7.10253 3.32523 7.14153 2.17434C7.1521 1.78896 7.30009 1.40432 7.58585 1.10537C7.84513 0.834122 8.13203 0.722787 8.28747 0.675792C8.45131 0.626283 8.58979 0.612513 8.66163 0.607344C8.73315 0.602195 8.79483 0.602391 8.80627 0.602427L8.80771 0.602432C8.97811 0.602432 9.14731 0.630764 9.30851 0.686284C10.8399 1.21371 12.1449 2.31768 13.2689 3.54166C14.4028 4.77648 15.4709 6.26798 16.484 7.72299C16.9739 8.42666 16.804 9.39678 16.1046 9.88968C15.4052 10.3826 14.441 10.2117 13.9511 9.50801C12.9347 8.04806 11.9733 6.7157 10.9975 5.65299C10.6856 5.31333 10.3837 5.01434 10.0909 4.75535ZM5.53106 14.9141C5.56172 14.9267 5.59325 14.9384 5.62564 14.9494C5.59689 14.9397 5.56841 14.9292 5.54028 14.9178C5.53726 14.9166 5.53419 14.9154 5.53106 14.9141Z" fill="#969FA4"/>
<path d="M44.5748 12.0365C44.0323 12.6033 43.1281 12.6235 42.5454 12.1174C42.2239 11.8138 41.7818 11.6114 41.3196 11.6114C40.3351 11.6114 39.5314 12.4413 39.5314 13.4737V16.4292H41.7818C42.5655 16.4292 43.2285 17.0769 43.2285 17.8663C43.2285 18.6761 42.5655 19.3238 41.7818 19.3238H39.5314V25.3764C39.5314 26.1658 38.8683 26.8339 38.0645 26.8339C37.2809 26.8339 36.6178 26.1658 36.6178 25.3764V25.3359C36.6178 23.4331 36.6178 21.5303 36.6178 19.6477V13.4534C36.6178 10.8422 38.7477 8.71665 41.3196 8.71665C42.5051 8.71665 43.6304 9.16199 44.5145 9.9717C45.0771 10.5385 45.0972 11.4495 44.5748 12.0365Z" fill="#969FA4"/>
<path d="M49.8588 26.854C46.6037 26.854 43.9313 24.182 43.9313 20.8825C43.9313 17.6032 46.6037 14.9108 49.8588 14.9108C53.114 14.9108 55.7864 17.6032 55.8065 20.9027C55.7864 24.2023 53.114 26.854 49.8588 26.854ZM49.8588 17.8461C48.1911 17.8461 46.8248 19.2023 46.8248 20.9027C46.8248 22.5829 48.171 23.9594 49.8588 23.9594C51.5266 23.9594 52.893 22.6031 52.893 20.9027C52.8728 19.2023 51.5266 17.8461 49.8588 17.8461Z" fill="#969FA4"/>
<path d="M62.8998 26.8339C61.3325 26.8339 59.9059 26.2469 58.7806 25.174C57.6554 24.0607 57.0124 22.5829 56.9521 20.9838C56.932 19.4049 57.4947 17.8866 58.6199 16.753C59.7049 15.6195 61.1717 14.9717 62.7591 14.911C64.3465 14.8907 65.8334 15.4778 66.9587 16.5911C67.5212 17.1174 67.5414 18.0486 66.9988 18.5952C66.4563 19.162 65.5521 19.1822 64.9895 18.6357C64.4068 18.0689 63.6231 17.745 62.7993 17.745C61.9755 17.745 61.2119 18.1093 60.6292 18.6963C60.0867 19.2834 59.7451 20.0728 59.7853 20.9028C59.7853 21.7125 60.147 22.5222 60.7297 23.0688C61.3123 23.6558 62.096 23.9797 62.8998 23.9594C63.6834 23.9594 64.4068 23.6558 64.9694 23.1295C65.512 22.5829 66.4362 22.6234 66.9587 23.2105C67.5012 23.7773 67.461 24.6882 66.8783 25.2348C65.8133 26.2266 64.4268 26.8137 62.96 26.8339H62.8998Z" fill="#969FA4"/>
<path d="M74.4531 26.9756C71.3788 26.9756 68.8471 24.2833 68.8471 21.004V16.4494C68.8471 15.6599 69.4298 15.0122 70.1732 15.0122C70.9368 15.0122 71.6602 15.6599 71.6602 16.4494V21.004C71.6602 22.7246 73.0868 24.1011 74.4531 24.1011C76.0607 24.1011 77.2663 22.7246 77.2663 21.004V16.6518C77.2663 15.8421 78.09 15.2146 78.7331 15.2146C79.4564 15.2146 80.0792 15.8421 80.0792 16.6518V21.004C80.0792 24.2833 77.5676 26.9756 74.4531 26.9756Z" fill="#969FA4"/>
<path d="M85.9872 26.9554C84.48 26.9554 82.9528 26.3278 82.1896 25.5991C81.6264 25.0727 81.5664 24.1619 82.1088 23.5951C82.6312 23.008 83.5352 22.9675 84.0984 23.4938C84.52 23.8987 86.1072 24.4453 87.012 23.8582C87.2528 23.7165 87.3936 23.4533 87.3936 23.1902C87.3936 22.8663 87.112 22.6234 86.8712 22.5222C86.6504 22.4007 86.288 22.4007 85.8464 22.4007C85.284 22.4007 84.6408 22.3805 83.9776 22.1376C82.752 21.7327 81.7472 20.4574 81.6672 19.2024C81.5464 17.7044 82.1896 16.7732 82.732 16.2469C83.9176 15.1538 85.6456 14.9919 86.8912 15.1943C87.8352 15.3563 88.5392 15.7004 89.1416 16.2469C89.704 16.7732 89.7648 17.6842 89.2424 18.251C88.9408 18.5749 88.4784 18.757 88.0368 18.6963C87.8152 18.6761 87.6144 18.5951 87.4136 18.4736C87.092 18.2307 86.8512 18.0688 86.4288 17.9878C85.7256 17.8663 84.3992 17.9068 84.5 18.9392C84.52 19.0607 84.7408 19.3643 84.9224 19.4453C85.1632 19.5262 85.5048 19.5262 85.8864 19.5262C86.5096 19.5465 87.2728 19.5465 88.0568 19.9109C89.3624 20.4979 90.2064 21.7934 90.2064 23.1699C90.2064 24.3845 89.584 25.5181 88.5792 26.2266C87.7752 26.7731 86.8912 26.9554 85.9872 26.9554Z" fill="#969FA4"/>
<path d="M99.8104 12.0365C99.268 12.6033 98.364 12.6235 97.7816 12.1174C97.46 11.8137 97.0176 11.6113 96.5552 11.6113C95.5712 11.6113 94.7672 12.4413 94.7672 13.4736V16.4291H97.0176C97.8016 16.4291 98.4648 17.0768 98.4648 17.8663C98.4648 18.6761 97.8016 19.3238 97.0176 19.3238H94.7672V25.3763C94.7672 26.1658 94.104 26.8338 93.3008 26.8338C92.5168 26.8338 91.8536 26.1658 91.8536 25.3763V25.3359C91.8536 23.433 91.8536 21.5302 91.8536 19.6477V13.4534C91.8536 10.8421 93.984 8.71665 96.5552 8.71665C97.7408 8.71665 98.8664 9.16199 99.7504 9.9717C100.313 10.5385 100.333 11.4494 99.8104 12.0365Z" fill="#969FA4"/>
<path d="M105.076 26.854C101.821 26.854 99.1488 24.182 99.1488 20.8825C99.1488 17.6032 101.821 14.9108 105.076 14.9108C108.331 14.9108 111.003 17.6032 111.024 20.9027C111.003 24.2023 108.331 26.854 105.076 26.854ZM105.076 17.8461C103.408 17.8461 102.042 19.2023 102.042 20.9027C102.042 22.5829 103.388 23.9594 105.076 23.9594C106.764 23.9594 108.11 22.6031 108.11 20.9027C108.11 19.2023 106.764 17.8461 105.076 17.8461Z" fill="#969FA4"/>
<path d="M122.798 24.4857C123.321 25.0322 123.301 25.9229 122.758 26.4694C122.497 26.7326 122.135 26.854 121.794 26.854C121.432 26.854 121.09 26.7124 120.81 26.429L117.494 22.9674L114.238 26.3682C113.978 26.6516 113.616 26.7933 113.254 26.7933C112.933 26.7933 112.571 26.6719 112.29 26.4087C111.747 25.8622 111.727 24.9715 112.27 24.4249L115.605 20.9432L112.25 17.4412C111.727 16.8744 111.727 15.9837 112.29 15.4574C112.832 14.9108 113.716 14.9311 114.258 15.4776L117.514 18.8987L120.85 15.4169C121.372 14.8703 122.236 14.8501 122.818 15.3967C123.361 15.923 123.382 16.7934 122.838 17.3804L119.463 20.923L122.798 24.4857Z" fill="#969FA4"/>
</svg>
