<svg width="132" height="45" viewBox="0 0 132 45" fill="none" xmlns="http://www.w3.org/2000/svg">
<path d="M54.9587 37.5762L47.8338 12.2304H52.7522L57.3009 30.8561H57.5351L62.392 12.2304H66.8667L71.7358 30.8685H71.9577L76.5063 12.2304H81.4249L74.2999 37.5762H69.7881L64.7341 19.792H64.5369L59.4704 37.5762H54.9587ZM88.5141 26.4379V37.5762H84.0517V12.2304H88.4154V21.797H88.6373C89.0811 20.7244 89.7673 19.8787 90.6959 19.26C91.6328 18.6329 92.8244 18.3193 94.2707 18.3193C95.5857 18.3193 96.7321 18.5957 97.7099 19.1486C98.6879 19.7013 99.444 20.5098 99.9782 21.5742C100.521 22.6385 100.792 23.938 100.792 25.4726V37.5762H96.3294V26.1657C96.3294 24.8868 96.0007 23.8926 95.3432 23.183C94.694 22.4652 93.7818 22.1064 92.6066 22.1064C91.8176 22.1064 91.111 22.2796 90.4864 22.6261C89.87 22.9644 89.3851 23.4553 89.0317 24.0989C88.6866 24.7424 88.5141 25.5221 88.5141 26.4379ZM104.993 37.5762V18.5669H109.456V37.5762H104.993ZM107.237 15.869C106.53 15.869 105.922 15.6337 105.412 15.1635C104.903 14.685 104.648 14.1116 104.648 13.4432C104.648 12.7667 104.903 12.1933 105.412 11.723C105.922 11.2445 106.53 11.0052 107.237 11.0052C107.952 11.0052 108.56 11.2445 109.061 11.723C109.571 12.1933 109.826 12.7667 109.826 13.4432C109.826 14.1116 109.571 14.685 109.061 15.1635C108.56 15.6337 107.952 15.869 107.237 15.869ZM113.697 37.5762V18.5669H118.024V21.7351H118.221C118.567 20.6377 119.158 19.792 119.996 19.198C120.842 18.5957 121.808 18.2946 122.894 18.2946C123.14 18.2946 123.415 18.3069 123.719 18.3318C124.031 18.3483 124.29 18.3771 124.496 18.4183V22.5396C124.307 22.4735 124.007 22.4157 123.596 22.3662C123.193 22.3085 122.803 22.2796 122.424 22.2796C121.611 22.2796 120.879 22.457 120.231 22.8117C119.589 23.1583 119.084 23.641 118.714 24.2598C118.345 24.8785 118.16 25.5923 118.16 26.4008V37.5762H113.697ZM131.576 12.2304V37.5762H127.113V12.2304H131.576Z" fill="#2D2D2D"/>
<path fill-rule="evenodd" clip-rule="evenodd" d="M23.6005 7.13429C21.2227 6.14544 18.65 5.71903 16.0818 5.88803C13.5135 6.05703 11.0184 6.81692 8.78942 8.1089L6.54049 9.41248L3.94364 4.89679L6.19257 3.59322C9.11145 1.90133 12.3788 0.906241 15.7421 0.684931C19.1053 0.463621 22.4741 1.02202 25.5881 2.31694C28.7019 3.61186 31.4773 5.60858 33.6996 8.15265C35.9219 10.6967 37.5314 13.72 38.4038 16.9884C39.2761 20.2569 39.3878 23.6831 38.7303 27.0018C38.0727 30.3206 36.6636 33.443 34.6118 36.1275C32.56 38.8121 29.9206 40.9867 26.8978 42.4833C23.8749 43.98 19.976 44.7584 17.1792 44.7584C14.3825 44.7584 12.7496 44.3373 10.6049 43.4455C8.52069 42.5787 6.62688 41.3083 5.03165 39.7068C3.43641 38.1052 2.17102 36.2039 1.30768 34.1114C0.44435 32.0189 0 29.7761 0 27.5112C0 25.2462 0.444351 23.0036 1.30768 20.911C2.17102 18.8185 3.43641 16.9172 5.03165 15.3156C6.62688 13.7141 8.52069 12.4436 10.605 11.5769C12.6892 10.7101 14.9232 10.264 17.1791 10.264C19.4351 10.264 21.669 10.7101 23.7533 11.5769C25.8376 12.4436 27.7314 13.7141 29.3266 15.3156C30.9219 16.9172 32.1873 18.8185 33.0505 20.911C33.4219 21.8111 33.7157 22.7389 33.9301 23.6844C34.0349 21.8895 33.8531 20.0843 33.387 18.338C32.721 15.8421 31.4918 13.5334 29.7948 11.5906C28.0977 9.6479 25.9784 8.12314 23.6005 7.13429ZM6.80666 33.5402C7.10124 27.9345 11.7219 23.4802 17.3789 23.4802C22.8172 23.4802 27.2978 27.5969 27.8978 32.8955C28.0249 32.6403 28.1431 32.3804 28.2522 32.116C28.8545 30.6561 29.1646 29.0914 29.1646 27.5112C29.1646 25.931 28.8545 24.3663 28.2522 22.9064C27.6499 21.4465 26.767 20.12 25.6541 19.0026C24.5412 17.8853 23.2199 16.9989 21.7657 16.3943C20.3116 15.7895 18.753 15.4783 17.1791 15.4783C15.6051 15.4783 14.0466 15.7895 12.5925 16.3943C11.1384 16.9989 9.81709 17.8853 8.70414 19.0026C7.59119 20.12 6.70835 21.4465 6.10602 22.9064C5.5037 24.3663 5.19369 25.931 5.19369 27.5112C5.19369 29.0914 5.5037 30.6561 6.10602 32.116C6.30851 32.6067 6.54269 33.0824 6.80666 33.5402ZM22.7723 34.1093C22.7723 37.0998 20.3576 39.5242 17.3789 39.5242C14.4001 39.5242 11.9854 37.0998 11.9854 34.1093C11.9854 31.1188 14.4001 28.6945 17.3789 28.6945C20.3576 28.6945 22.7723 31.1188 22.7723 34.1093Z" fill="#006B99"/>
</svg>
