<svg width="442" height="413" viewBox="0 0 442 413" fill="none" xmlns="http://www.w3.org/2000/svg">
<path d="M442 41.0309H7.38464V413H442V41.0309Z" fill="#DEF2F7"/>
<path d="M370.386 16.8283C369.895 17.9897 372.176 44.251 368.715 86.7335C366.513 113.94 369.639 139.02 369.757 172.722C369.757 197.291 367.456 231.092 367.79 255.267C368.145 293.024 369.422 324.699 370.072 344.739C370.544 359.307 358.508 367.91 341.576 367.634C303.777 367.024 234.492 365.665 172.189 364.229C150.143 363.757 134.174 359.976 115.59 359.563C99.9936 359.209 81.0355 362.221 70.0617 361.985L43.0402 361.375C43.0402 361.375 52.8733 62.9724 52.8733 61.9881C53.8561 52.6836 54.0534 43.3126 53.4633 33.9748L54.132 18.5606C54.132 18.5606 52.9323 15.6471 60.7989 15.1353C68.6654 14.6234 150.202 14.6234 150.202 14.6234L370.386 16.8283Z" fill="white"/>
<path d="M269.931 368.973C269.931 368.599 274.061 344.03 274.237 340.861C274.415 337.691 273.195 328.084 279.882 329.226C286.569 330.368 327.691 337.771 327.691 337.771L324.623 373.206C324.623 373.206 311.761 373.559 303.836 373.737C295.911 373.914 279.882 372.93 276.716 372.851C273.55 372.772 268.948 373.206 269.931 368.973Z" fill="#FFEF5F"/>
<path d="M46.5604 243.592C46.5604 243.592 34.8983 265.247 34.8983 265.543C34.8983 265.837 30.0407 363.303 32.0073 362.004C33.974 360.705 42.9418 361.453 42.9418 361.453L46.5604 243.592Z" fill="#D8E9FF"/>
<path d="M46.3246 145.438L50.1005 141.382L54.132 18.5606C54.132 18.5606 54.8204 15.1353 60.032 14.9974C65.2436 14.8596 371.173 16.7298 371.173 16.7298L369.56 2.18181C361.694 4.30791 48.9992 0.567531 44.8692 5.90248C41.998 9.62315 42.293 17.4385 42.293 17.4385C42.293 17.4385 37.809 159.178 38.3597 157.86C38.9103 156.54 44.4366 146.816 46.3246 145.438Z" fill="#D8E9FF"/>
<path d="M2.52749 237.47L15.3696 218.926C15.3696 218.926 26.7171 201.09 28.5854 194.967C30.4537 188.845 33.2857 180.321 34.4853 175.517C35.685 170.714 38.9299 160.616 38.9299 160.616C38.9299 160.616 45.1248 147.21 46.2851 145.438C47.4454 143.666 51.949 141.501 54.6236 139.394C57.2983 137.287 74.29 133.33 77.2399 131.874C80.1899 130.417 88.2334 132.011 91.5177 131.874C94.802 131.736 100.367 132.976 104.458 131.874C108.549 130.771 116.789 131.046 116.868 134.59C116.819 137.716 116.549 140.834 116.061 143.922C116.061 143.922 109.513 150.044 114.095 152.878C118.677 155.714 122.158 160.162 120.427 161.54C118.731 162.575 116.857 163.283 114.901 163.627C114.901 172.309 114.33 169.849 114.449 180.144C114.132 181.389 113.5 182.531 112.615 183.462C111.73 184.393 110.621 185.081 109.394 185.459C105.323 186.522 106.248 176.345 104.084 177.585C97.8699 181.325 96.3753 179.357 96.0213 181.049C95.6673 182.742 93.3467 187.093 89.1774 194.279C85.0081 201.464 78.4986 216.17 63.2572 224.516C48.0158 232.864 44.1021 247.51 41.6242 252.293C39.1462 257.078 23.9638 290.228 12.1837 315.151L2.96015 333.538C2.30128 327.11 2.09755 320.643 2.3505 314.187C2.88149 305.741 1.89817 284.441 1.72117 275.208C1.54417 265.975 1.19018 241.565 2.52749 237.47Z" fill="#FFCEB6"/>
<path d="M204.54 241.368L202.278 229.556C202.469 220.357 202.135 211.156 201.275 201.996C201.275 201.996 204.521 188.215 210.518 185.223C210.518 185.223 213.783 179.671 215.908 175.124C218.031 170.576 222.024 168.863 224.285 166.738C226.547 164.612 232.821 158.626 235.082 161.186C236.556 162.858 237.935 164.614 239.212 166.442L242.948 160.536C242.948 160.536 245.308 152.662 249.025 152.662C252.742 152.662 256.243 155.831 256.557 157.899C256.872 159.965 257.914 163.805 256.951 166.935C255.987 170.065 253.844 175.065 260.235 176.778C266.627 178.49 263.972 181.128 264.936 183.214C265.899 185.302 272.547 188.196 272.428 191.542C272.31 194.889 270.816 197.448 272.428 200.322C272.428 200.322 277.129 213.414 275.87 217.351C274.611 221.288 266.371 237.706 265.545 240.974C264.719 244.241 257.482 257.51 256.892 260.364C256.302 263.219 255.811 274.972 255.299 279.165C254.787 283.358 253.883 290.977 254.552 293.949C255.221 296.922 257.581 320.978 258.485 325.782C259.39 330.585 262.988 366.236 262.654 366.827C262.32 367.417 241.965 369.15 234.256 369.918C226.547 370.686 211.404 370.705 206.468 370.626C201.532 370.548 198.325 370.725 199.505 369.367C200.685 368.008 199.997 360.213 200.765 356.335C201.532 352.456 205.072 335.684 205.386 329.896C205.701 324.108 208.394 307.158 209.064 301.134C209.732 295.111 210.244 284.539 210.164 279.756C210.202 274.004 209.488 268.274 208.041 262.707C206.153 255.719 205.13 244.379 204.54 241.368Z" fill="#FFCEB6"/>
<path d="M101.547 286.882C99.7382 303.037 97.9551 319.193 96.1983 335.349C92.3584 333.876 88.4141 332.692 84.3985 331.805C80.7195 330.46 76.8482 329.716 72.933 329.601C71.4187 329.285 69.9634 328.655 68.4491 328.281C61.2512 326.47 63.4735 334.187 71.0647 279.224C81.4626 280.716 91.678 283.283 101.547 286.882Z" fill="#DEF2F7"/>
<path d="M325.784 37.0654C340.986 38.7388 341.241 37.2426 341.025 39.034C338.684 57.8736 339.058 61.3974 337.603 66.2402C335.499 73.2485 332.962 88.9776 330.012 88.8989C301.515 88.2689 323.777 89.6666 299.017 87.3437C292.548 86.7334 289.361 87.7374 287.493 87.3437C292.351 75.0793 291.977 75.532 295.537 59.6454C299.883 40.1365 297.149 50.4717 299.077 36.2386C322.361 36.1008 314.495 35.8449 325.784 37.0654Z" fill="#FFEF5F"/>
<path d="M255.731 37.4789C257.698 37.1836 258.722 37.1442 258.564 38.8372C254.827 79.6661 257.856 52.4206 253.667 81.1623C253.391 82.9734 253.47 83.1309 251.7 83.3081C245.801 83.623 225.151 82.56 212.171 83.8199C214.741 75.0027 216.356 65.9344 216.989 56.7712C216.989 56.7712 218.248 37.0851 219.389 36.9276C223.473 36.6826 227.572 36.7814 231.641 37.2229C234.571 37.341 253.726 37.7938 255.731 37.4789Z" fill="#DEF2F7"/>
<path d="M244.817 110.219C247.354 110.436 249.124 110.003 249.025 112.05C248.243 122.106 246.931 132.114 245.092 142.031C242.261 158.686 242.831 156.245 238.877 163.155C234.688 158.39 235.574 158.824 232.781 158.883C227.943 158.883 225.937 165.537 222.947 163.863C222.082 163.391 207.942 163.096 202.397 161.698C202.397 160.3 203.084 154.611 205.248 141.166C206.959 130.653 207.214 111.282 208.178 110.534C207.274 109.963 206.743 109.943 216.95 110.416C223.349 109.932 229.775 109.866 236.184 110.219C240.53 110.337 236.242 109.412 244.817 110.219Z" fill="#FFEF5F"/>
<path d="M312.6 108.467C327.967 109.715 331.371 108.242 331.164 109.959C329.803 129.429 322.233 148.306 316.085 165.506C315.219 167.959 314.476 170.577 313.486 170.454C306.288 169.493 288.342 165.097 288.3 165.097C287.145 164.851 285.929 164.892 284.772 164.667C279.905 163.645 278.853 162.99 276.13 162.949C268.704 162.949 269.468 162.704 269.24 162.091C273.015 154.093 274.996 151.251 281.142 126.239C286.423 104.827 279.533 108.385 289.91 108.242C289.91 108.242 297.851 107.424 300.429 107.383C301.873 107.362 298.635 107.322 312.6 108.467Z" fill="#006B99"/>
<path d="M334.574 227.863C330.641 288.162 331.447 268.2 329.953 297.158C326.826 298.89 311.977 294.047 306.805 293.359C300.296 292.472 300.493 292.532 300.08 292.335C297.011 290.721 294.907 291.094 284.012 288.634C282.635 288.319 281.475 287.571 280.63 287.492C277.994 287.217 279.134 286.429 279.45 279.953C280 268.554 286.372 222.115 286.411 221.446C288.122 221.78 301.024 223.67 301.77 223.414C304.21 222.824 306.432 223.926 308.772 224.26C333.394 227.824 322.046 225.5 334.574 227.863Z" fill="#FFCCDD"/>
<path d="M205.405 314.58C201.295 346.078 199.505 348.716 198.09 362.752L186.663 360.272C187.018 351.649 190.813 318.931 191.757 311.057L205.405 314.58Z" fill="#006B99"/>
<path d="M165.247 304.305C167.646 304.954 162.355 331.628 159.485 358.855C140.644 353.224 149.652 353.618 137.714 350.98C134.764 350.37 135.295 351.374 129.257 348.735C126.956 347.751 125.324 347.003 125.442 346.039C127.409 332.632 128.51 331.53 128.786 326.903C129.199 320.151 132.463 297.748 132.719 295.622C143.909 299.717 139.464 297.276 165.247 304.305Z" fill="#FFCCDD"/>
<path d="M201.767 235.973C206.172 249.42 201.571 242.824 208.061 273.377C201.925 272.905 196.378 270.838 190.519 269.873C190.519 269.873 197.992 207.35 198.719 207.665C199.447 207.98 200.076 207.488 200.115 208.472C200.685 224.497 198.463 226.13 201.767 235.973Z" fill="#FFEF5F"/>
<path d="M177.971 205.185C175.179 224.399 171.462 243.317 167.725 262.274C164.637 260.719 167.135 265.03 145.226 259.144C141.156 258.062 137.026 256.23 133.27 256.881C131.01 256.944 128.753 256.691 126.564 256.132C133.467 229.93 128.53 248.533 131.814 232.036C134.351 218.984 132.66 221.15 133.486 216.09C134.647 208.905 134.764 213.295 136.101 201.228C145.64 203.432 142.316 202.429 154.056 202.487C159.229 202.567 169.986 205.185 177.971 205.185Z" fill="#DEF2F7"/>
<path d="M108.313 198.353C100.447 239.025 107.447 208.905 97.8308 250.601C97.3392 252.706 85.677 249.104 68.0166 245.738C66.4433 245.443 66.7777 244.379 66.9153 243.769C73.6215 218.039 71.7729 219.969 72.8152 219.181C83.3564 211.8 87.624 196.897 90.2986 197.152C97.9882 197.959 104.773 197.704 108.313 198.353Z" fill="#006B99"/>
<path d="M108.175 110.12C108.175 117.818 107.33 120.712 107.073 129.098C107.085 129.201 107.075 129.305 107.042 129.403C107.009 129.501 106.955 129.591 106.883 129.666C106.813 129.741 106.726 129.8 106.629 129.838C106.533 129.875 106.43 129.891 106.327 129.886C103.691 130.083 101.056 130.377 98.46 130.436C89.8855 130.633 88.6269 127.425 78.243 129.709C79.1477 122.897 80.0327 116.282 80.9177 109.51C102.865 109.924 83.9659 110.12 108.175 110.12Z" fill="#FFEF5F"/>
<path d="M178.049 112.719C178.049 145.929 177.892 143.449 175.788 157.997C143.575 156.895 157.125 156.638 141.156 155.831C141.156 154.434 141.353 143.528 142.65 143.095C146.583 141.737 155.02 140.043 157.676 137.642C158.659 136.755 159.209 135.476 157.951 134.492C156.692 133.508 153.604 132.897 143.201 134.492C143.771 127.109 144.342 119.885 144.873 112.837C160.861 111.42 169.908 113.506 178.049 112.719Z" fill="#FFCCDD"/>
<path d="M184.835 37.6757C184.835 46.0423 185.168 39.979 182.868 56.0231C179.091 82.6978 178.935 80.5323 177.499 80.2764C172.13 79.2527 167.803 80.2764 160.605 80.0402C158.638 80.0402 158.638 80.4142 147.272 81.0441C145.109 81.1819 143.869 81.7332 144.184 79.8433C144.951 75.1974 144.872 74.2918 146.937 61.9486C148.452 52.9324 148.904 53.7002 149.239 47.3809C149.592 40.0184 149.613 38.3057 150.575 38.6994C152.699 39.5656 154.508 38.6994 162.258 37.4788C167.017 36.7308 165.07 37.6166 176.752 37.8529C180.232 37.9316 182.868 37.4788 184.835 37.6757Z" fill="#FFCCDD"/>
<path d="M119.798 38.7192C120.427 38.7192 116.297 68.7798 114.213 75.2172C112.698 79.7647 116.554 77.6189 99.9154 77.6189C95.3207 77.5087 90.7238 77.673 86.1488 78.111C83.6118 78.111 84.5558 78.2685 87.3484 65.2166C87.3484 65.2166 90.5934 42.4202 90.5934 38.5223C96.0606 38.9948 92.678 38.5223 98.1649 38.5223C112.502 38.8373 113.643 38.4436 119.798 38.7192Z" fill="#FFEF5F"/>
<path d="M372.117 2.10296C372.117 4.20937 375.126 3.85502 215.672 4.50466C36.157 5.21336 47.3471 4.24874 44.9478 8.99309C43.2565 12.3397 43.8465 10.9617 42.6665 51.7906C39.1659 172.703 37.0616 158.213 44.9478 144.827C50.2184 135.929 47.8584 158.942 50.3954 83.0521C51.7524 42.361 52.362 22.3403 52.6373 19.5842C52.9717 15.8832 54.604 13.954 58.2029 13.954C64.1028 13.954 362.146 15.2729 370.898 15.7651C374.025 15.9226 372.413 17.8518 371.212 17.9896C370.151 18.9739 59.6976 15.7651 55.784 16.9856C54.781 17.3006 51.5754 139.669 51.5754 139.708C72.4217 130.574 75.588 131.658 75.588 129.709C75.588 124.984 76.414 125.259 77.5546 114.767C78.3413 107.444 77.7709 107.463 80.6029 107.089C90.2001 105.848 91.3801 107.877 106.582 107.089C108.273 107.089 110.516 106.873 110.516 108.191C111.931 135.496 106.031 127.543 114.901 130.771C116.165 131.349 117.205 132.322 117.868 133.542C118.532 134.764 118.781 136.168 118.579 137.543C118.382 138.646 137.281 135.26 137.4 135.24C140.782 134.689 140.132 137.977 141.628 118.821C142.237 110.77 141.628 110.179 143.082 109.785C143.71 109.554 144.384 109.473 145.049 109.549C147.311 110.042 149.435 109.175 151.618 109.117C154.686 108.998 174.667 109.629 174.706 109.629C183.005 109.629 180.508 105.692 180.764 127.996C181.118 140.398 180.272 145.516 178.404 159.06C178.246 160.084 177.971 160.91 176.673 160.753C176.555 160.753 176.417 160.93 176.279 160.969C172.346 162.013 143.456 159.69 141.766 159.001C138.166 157.406 137.026 162.938 139.406 145.22C139.406 144.847 139.406 144.454 139.406 144.079C130.752 146.048 122.394 148.824 113.426 149.985C118.54 154.867 121.863 156.776 120.368 161.58C120.085 162.58 119.508 163.472 118.711 164.139C117.916 164.805 116.937 165.217 115.904 165.321C116.671 175.045 115.55 169.947 115.904 175.695C116.238 182.014 115.904 186.857 110.004 187.29C105.363 187.644 103.907 184.81 103.337 180.735C103.101 178.924 104.084 178.766 101.764 179.829C94.2513 183.214 99.66 180.577 93.1304 190.243C92.3362 191.633 91.6777 193.097 91.1637 194.613C101.666 195.538 106.483 193.669 110.477 196.581C111.184 197.094 107.939 217.312 105.264 232.351C102.669 247.038 103.298 239.754 100.466 252.589C99.974 254.794 100.092 255.365 82.4909 251.605C81.5862 251.408 80.7602 250.817 79.8752 250.62C75.47 249.675 68.7441 248.652 64.9681 247.431C61.5462 246.387 64.0242 245.463 69.4324 222.292C69.7274 220.992 68.9211 222.292 66.1481 224.26C57.9669 230.166 55.5283 230.934 51.9687 236.072C46.0688 244.714 48.8024 227.902 45.0461 333.754C44.0432 361.827 45.0461 362.732 42.5682 362.673C40.8572 362.673 40.9162 367.614 44.4365 263.475C45.1641 241.82 46.4031 243.947 39.6182 259.025C34.564 270.227 36.4716 254.459 33.7183 336.53C32.912 361.925 33.4627 361.551 31.85 361.767C29.4901 362.083 30.0407 361.767 30.67 341.334C32.912 268.299 32.9907 273.357 32.5187 273.201C11.7903 316.923 20.3649 301.371 8.62406 325.348C6.63461 328.669 4.83552 332.1 3.23548 335.625C3.09467 335.969 2.82292 336.244 2.4799 336.387C2.13688 336.532 1.75083 336.533 1.40651 336.392C1.06229 336.251 0.788106 335.98 0.64427 335.636C0.500434 335.292 0.49874 334.906 0.639566 334.561C3.94347 326.057 6.67709 323.537 13.344 308.162C21.3285 289.776 15.3106 301.588 30.4734 270.759C39.8346 251.702 43.2762 242.352 47.8388 235.934C50.9657 231.525 54.4073 229.044 61.6052 223.571C77.7906 211.11 76.0206 214.909 89.4724 190.794C90.2787 189.357 91.2621 188.038 92.029 186.582C97.0636 177.112 93.091 181.561 101.627 176.423C102.217 176.069 101.744 173.371 103.356 173.254C103.496 173.231 103.638 173.239 103.774 173.274C103.911 173.309 104.038 173.373 104.149 173.458C104.259 173.545 104.351 173.654 104.418 173.778C104.484 173.902 104.526 174.038 104.536 174.18C104.536 174.691 105.009 175.164 105.126 175.675C105.501 178.19 106.162 180.653 107.093 183.018C107.762 184.199 112.836 184.789 112.993 180.793C113.21 173.274 114.566 177.23 110.023 176.069C101.39 173.884 103.356 168.785 101.96 163.509C99.2069 165.616 95.7066 165.477 92.914 167.604C94.4873 170.97 96.3556 174.494 94.743 175.006C93.1304 175.517 93.1107 173.549 90.9867 169.553C89.6691 167.093 85.8145 161.678 87.3878 161.245C88.9611 160.813 89.6887 162.604 91.557 164.927C101.528 161.501 98.1846 162.387 101.882 160.006C101.329 158.717 100.448 157.596 99.3254 156.757C98.5976 156.068 99.8762 155.182 100.427 155.34C107.133 157.308 110.26 163.489 116.16 161.717C117.222 161.403 118.677 158.628 117.123 157.269C116.573 156.776 111.44 152.091 111.341 151.835C110.633 149.867 109.591 150.989 102.295 152.426C100.624 152.761 98.9125 152.898 97.2406 153.194C89.7281 154.533 92.678 157.643 80.4259 165.005C72.048 170.143 72.9527 170.439 70.9467 173.51C68.9408 176.581 68.2131 178.156 69.1374 180.125C73.2477 188.944 73.287 190.459 72.4807 197.291C72.1857 199.85 72.048 201.444 70.5141 201.228C67.9574 200.756 71.9497 194.613 69.6094 188.097C64.1028 212.567 58.3209 207.783 59.9729 204.968C63.2768 199.554 63.3162 200.243 64.8305 194.889C66.3448 189.535 66.3055 190.459 66.3448 181.739C65.8027 180.849 65.516 179.828 65.516 178.786C65.516 177.744 65.8027 176.722 66.3448 175.833C74.3097 160.202 75.6863 168.194 90.5737 152.603C95.2543 147.701 92.3634 142.76 87.9974 142.308C89.9641 145.438 91.3997 146.835 88.4891 150.753C86.0898 154.001 79.7769 154.513 79.1673 150.418C79.0689 149.748 79.5606 147.76 80.8979 148.45C82.2352 149.138 81.4092 151.028 83.4939 150.418C87.8008 149.296 88.3318 146.894 86.4438 144.512C84.5558 142.13 84.6345 142.544 81.5665 143.922C65.8335 151.402 63.5718 154.69 60.5432 158.096C49.0384 171.089 46.6391 166.442 39.5002 181.719C39.3429 182.033 39.2446 182.998 37.5336 182.861C36.4913 182.762 38.2416 178.589 38.5759 177.841C44.4758 164.612 55.2333 163.372 47.1701 164.75C44.466 164.996 41.7959 165.53 39.2052 166.344C37.2386 166.915 34.7213 180.813 30.6307 192.369C29.4914 195.658 28.1784 198.885 26.6974 202.035C17.1396 220.54 13.167 224.91 5.79211 234.989C3.82547 237.627 3.41248 239.32 1.85884 238.926C-2.64471 237.824 5.33978 234.261 21.9972 204.555C28.3494 193.235 29.2344 185.833 34.1313 170.301C34.9966 167.525 35.9406 166.541 34.6426 166.522C32.971 166.522 31.083 167.269 29.7261 164.553C27.7594 160.458 28.6247 156.521 34.2493 154.71C37.6123 153.666 36.3929 159.197 37.6319 119.078C37.6319 119.078 40.9752 13.4421 41.4275 10.942C42.9812 2.37856 38.3989 1.66991 126.19 1.66991C152.247 1.66991 186.624 0.961208 231.464 1.07932C376.188 1.63053 372.137 -0.357759 372.117 2.10296ZM175.788 158.096C177.892 143.449 178.049 145.929 178.049 112.818C169.908 113.605 160.861 111.518 144.873 113.073C144.342 120.102 143.771 127.327 143.201 134.728C153.604 133.114 156.633 133.685 157.951 134.728C159.269 135.771 158.659 136.992 157.676 137.878C155.02 140.279 146.682 141.973 142.65 143.331C141.353 143.764 141.156 154.67 141.156 156.068C157.164 156.737 143.575 156.993 175.788 158.096ZM155.001 136.441C155.001 135.595 152.247 136.145 151.067 136.283C140.919 137.406 142.159 137.346 142.001 140.221C151.776 138.252 154.903 137.189 155.001 136.362V136.441ZM114.213 138.901C116.18 138.587 115.964 133.763 112.718 133.252C108.234 132.563 101.547 133.449 96.1 133.37C91.4784 133.37 84.5952 131.067 80.8979 132.208C58.1636 139.197 47.4651 141.657 44.3578 152.8C54.5647 149.729 68.8621 149.021 79.4032 142.031C82.1878 140.348 85.3735 139.443 88.6268 139.413C96.8473 142.406 89.3938 142.741 114.213 138.901ZM105.461 167.722C105.658 173.805 114.153 174.907 113.604 170.754C113.347 168.943 113.328 167.093 113.21 165.124C109.277 165.281 107.034 162.427 103.967 160.616C104.845 162.888 105.35 165.288 105.461 167.722ZM107.073 129.098C107.33 120.712 108.175 117.818 108.175 110.12C83.9658 110.12 102.865 109.924 80.8782 109.51C79.9932 116.282 79.1082 122.897 78.2036 129.709C88.6071 127.425 89.8461 130.633 98.4206 130.436C101.056 130.436 103.691 130.083 106.287 129.886C106.393 129.898 106.501 129.886 106.603 129.851C106.704 129.816 106.795 129.759 106.871 129.682C106.947 129.607 107.005 129.515 107.04 129.414C107.075 129.313 107.087 129.204 107.073 129.098ZM97.8308 250.601C107.428 208.886 100.387 239.025 108.313 198.353C104.773 197.626 97.9879 197.959 90.3967 197.212C87.7221 196.956 83.4545 211.858 72.9134 219.24C71.7727 220.027 73.6213 218.099 67.0135 243.828C66.8758 244.379 66.5415 245.442 68.1148 245.797C85.6768 249.104 97.3392 252.706 97.8308 250.601Z" fill="#000001"/>
<path d="M341.221 35.3332C342.047 35.3332 343.955 35.4907 343.837 38.3058C343.208 53.7593 338.626 80.8671 333.571 91.3598C333.197 92.1078 332.962 92.1472 327.042 91.9503C300.964 91.0645 326.117 92.5803 299.745 90.1589C291.721 89.4108 282.733 91.7535 284.74 86.5564C288.948 75.729 289.99 70.8075 293.727 55.413C298.585 35.3332 292.35 33.3646 299.49 33.3646C339.255 33.4236 311.368 34.3095 341.221 35.3332ZM341.025 38.9554C341.241 37.2427 341.025 38.7389 325.783 36.9868C314.475 35.7663 322.322 36.0222 299.077 36.0222C297.11 50.2552 299.883 39.9594 295.537 59.4289C291.976 75.3943 292.35 74.8628 287.493 87.1273C289.361 87.58 292.547 86.576 299.017 87.1273C323.777 89.4502 301.515 88.0525 330.012 88.6825C332.962 88.6825 335.499 73.032 337.602 66.0238C339.039 61.3188 338.684 57.795 341.025 38.9554Z" fill="#000001"/>
<path d="M337.327 226.682C337.327 227.135 336.324 251.034 336.108 253.357C335.419 260.877 335.066 264.204 334.909 265.463C335.006 261.822 334.554 268.082 334.909 265.463C334.457 281.488 332.607 293.024 333.394 293.142C332.214 303.595 335.361 303.26 311.191 297.729C305.98 296.548 302.144 296.154 298.664 295.406C297.346 295.13 296.127 294.441 294.731 294.146C291.249 293.359 287.729 292.709 284.209 291.941C283.127 291.704 281.219 290.839 277.857 289.973C274.965 289.264 275.89 288.515 276.322 278.614C276.673 273.207 277.33 267.823 278.289 262.491C278.795 254.253 279.721 246.047 281.062 237.903C281.534 234.969 282.32 231.682 283.658 223.06C284.13 219.969 283.521 218.197 285.624 218.453C301.653 220.421 301.357 220.304 302.459 220.068C304.17 219.694 316.54 222.45 316.58 222.45C320.948 222.554 325.308 222.902 329.638 223.493C337.21 225.048 337.189 222.941 337.327 226.682ZM329.953 297.158C331.447 268.2 330.68 288.162 334.574 227.863C322.046 225.5 333.394 227.863 308.772 224.358C306.432 224.024 304.21 222.922 301.77 223.512C301.024 223.67 288.122 221.78 286.411 221.544C286.411 222.214 280 268.652 279.45 280.05C279.134 286.527 277.994 287.315 280.63 287.591C281.475 287.591 282.596 288.418 284.012 288.732C294.907 291.193 297.011 290.819 300.08 292.433C300.493 292.63 300.296 292.571 306.805 293.457C311.977 294.047 326.826 298.89 329.953 297.158Z" fill="#000001"/>
<path d="M332.313 108.093C333.768 115.318 330.464 130.791 326.413 143.528C324.446 149.808 321.89 156.737 320.768 159.946C316.265 172.742 317.248 168.824 316.541 170.833C315.93 172.525 316.383 172.644 310.641 171.521C310.641 171.521 281.003 165.616 280.059 165.3C277.601 164.356 274.159 165.183 268.378 164.06C265.683 163.528 267.079 160.95 267.925 159.021C272.331 149.178 271.661 154.04 280.236 118.094C281.18 114.157 279.862 116.125 282.439 107.109C282.655 106.36 283.068 106.439 288.044 105.829V106.222C303.777 103.959 295.498 105.651 313.963 106.045C318.156 106.802 322.438 106.928 326.668 106.419C328.36 106.183 331.998 106.616 332.313 108.093ZM329.618 110.869C329.737 109.215 326.491 110.633 311.919 109.432C298.604 108.329 301.692 108.368 300.394 108.388C297.936 108.388 290.364 109.215 290.364 109.215C280.531 109.353 287.041 105.928 282.006 126.539C276.106 150.615 274.258 153.351 270.658 161.049C270.875 161.639 270.148 161.777 277.228 161.875C279.823 161.875 280.826 162.544 285.468 163.528C286.569 163.746 287.729 163.706 288.831 163.943C288.831 163.943 305.98 168.175 312.843 169.1C313.787 169.218 314.495 166.699 315.32 164.337C321.103 147.78 328.261 129.61 329.618 110.869Z" fill="#000001"/>
<path d="M313.885 333.951C332.273 337.081 330.169 331.234 328.242 352.023C326.452 371.316 326.688 375.331 323.974 374.839C321.26 374.347 324.76 358.5 325.449 347.928C325.724 343.735 325.449 345.015 325.979 338.775C314.082 336.806 281.278 330.723 277.01 330.093C275.674 339.405 272.232 365.075 271.11 369.111C270.994 369.405 270.781 369.648 270.506 369.804C270.23 369.958 269.911 370.014 269.6 369.96C269.289 369.907 269.006 369.749 268.797 369.512C268.59 369.275 268.469 368.974 268.456 368.657C268.614 366.316 270.423 353.342 270.717 351.748C273.628 331.747 272.822 326.923 277.109 327.573C318.428 333.932 300.217 331.569 313.885 333.951Z" fill="#000001"/>
<path d="M313.531 91.6353C313.963 91.7534 312.43 91.6353 313.531 91.6353Z" fill="#000001"/>
<path d="M274.041 198.314C273.884 200.657 278.643 204.791 277.581 212.547C275.83 225.599 278.014 217.232 268.594 238.139C265.152 245.797 266.431 246.289 261.966 254.341C257.856 261.762 257.718 262.609 257.836 269.007C258.21 290.938 254.434 271.133 257.836 307.316C260.078 330.94 261.061 333.105 262.143 342.121C262.595 345.921 263.087 354.464 263.166 354.602C263.991 356.019 263.5 357.633 263.834 359.149C266.509 371.119 260.412 369.091 260.157 366.749C259.901 364.406 260.314 367.949 258.898 349.031C256.361 315.565 251.15 295.977 253.804 280.878C255.771 269.243 253.214 269.932 255.279 260.955C256.459 255.778 260.648 251.112 262.694 243.612C264.248 237.942 265.368 238.257 270.187 227.311C272.153 222.902 273.844 220.756 273.943 213.945C273.943 208.04 275.084 208.787 272.389 203.668C269.695 198.55 271.268 197.429 270.757 194.357C269.577 187.408 265.997 190.42 263.854 183.982C263.615 182.769 263.049 181.642 262.217 180.726C261.386 179.81 260.319 179.139 259.135 178.786C249.144 172.408 256.911 169.75 255.437 160.458C255.31 159.677 254.995 158.939 254.518 158.308C254.042 157.677 253.418 157.171 252.703 156.835C244.561 151.737 245.879 156.048 244.837 159.119C244.541 159.985 241.906 163.863 240.903 166.206C238.641 172.112 234.098 177.073 230.028 181.64C227.215 184.81 225.17 190.597 220.568 194.022C219.368 194.928 216.222 195.499 213.941 199.928C213.174 201.386 210.853 200.362 211.542 198.491C214.334 190.735 218.326 194.554 224.207 183.865C227.668 177.585 229.221 177.801 235.023 170.085C235.746 169.154 236.128 168.004 236.106 166.825C236.085 165.647 235.661 164.512 234.905 163.608C234.694 163.22 234.371 162.905 233.978 162.705C233.585 162.504 233.14 162.428 232.702 162.485C231.364 162.743 230.147 163.435 229.242 164.454C220.293 172.053 218.523 172.447 216.537 177.624C213.468 185.499 207.844 188.136 203.695 198.688C201.728 203.826 203.065 206.385 203.065 211.622C203.065 215.559 202.731 221.465 202.632 224.792C202.475 231.289 205.347 234.635 207.136 245.954C207.648 249.242 208.257 256.762 208.532 258.357C209.909 266.664 212.014 271.153 211.64 282.492C211.443 288.299 211.03 296.272 210.696 300.21C210.362 304.147 201.197 364.425 200.862 366.788C200.41 369.701 200.45 372.083 197.579 371.473C196.006 371.138 196.555 368.934 197.244 366.709C197.539 365.685 198.09 366.138 186.86 363.225C184.894 362.752 182.927 362.575 183.379 360.685C183.379 360.685 186.624 331.491 186.624 331.451C186.526 326.667 188.118 322.14 188.453 317.434C188.648 314.885 189.143 312.367 189.929 309.934C190.696 307.552 189.594 307.671 205.956 311.431C207.628 297.119 208.139 302.473 208.139 276.744C197.441 275.523 195.788 273.948 190.793 272.983C184.716 271.842 187.725 269.42 193.685 220.618C195.651 205.381 195.159 203.709 199.585 204.869C200.155 199.534 200.882 193.767 209.909 182.821C213.193 178.884 214.511 173.667 216.635 171.009C218.051 169.237 219.9 168.391 221.119 166.954C209.319 165.537 197.677 166.128 198.798 162.347C199.943 157.661 200.562 152.861 200.646 148.036C201.158 141.047 201.079 154.513 204.422 115.574C204.678 112.562 204.717 110.16 204.717 110.12C204.441 107.522 205.956 106.538 206.959 106.832C211.168 108.054 216.792 106.518 235.829 107.05C239.035 107.05 235.829 106.203 244.621 106.892C251.523 107.444 251.424 107.581 251.602 108.604C252.192 112.069 249.518 136.165 246.527 151.402C250.618 151.107 253.529 153.371 256.538 155.34C257.069 155.684 257.509 156.153 257.821 156.705C258.133 157.256 258.307 157.876 258.327 158.509C258.812 160.979 258.905 163.51 258.603 166.009C257.581 170.281 256.105 172.939 259.075 174.455C264.11 177.053 264.208 176.994 266.116 180.361C267.492 182.762 266.824 184.023 268.888 185.302C273.667 188.333 274.395 192.92 274.041 198.314ZM249.025 112.05C249.025 110.081 247.354 110.436 244.817 110.219C236.242 109.412 240.53 110.337 236.164 110.219C229.755 109.866 223.33 109.932 216.93 110.416C206.723 109.943 207.254 109.963 208.158 110.534C207.175 111.282 206.939 130.653 205.228 141.166C203.065 154.611 202.397 160.3 202.397 161.698C207.942 163.096 222.063 163.391 222.948 163.863C225.977 165.537 227.982 158.961 232.782 158.883C235.574 158.883 234.748 158.39 238.878 163.155C242.811 156.245 242.261 158.686 245.092 142.031C246.931 132.114 248.244 122.106 249.025 112.05ZM208.061 273.377C201.571 242.824 206.094 249.42 201.767 235.973C198.542 226.13 200.685 224.497 200.115 208.413C200.115 207.428 199.211 207.843 198.719 207.606C198.228 207.37 190.597 269.833 190.597 269.873C196.378 270.838 201.925 272.905 208.061 273.377ZM198.09 362.752C199.565 348.716 201.295 346.157 205.405 314.58L191.816 311.076C190.872 318.951 187.076 351.649 186.722 360.291L198.09 362.752Z" fill="#000001"/>
<path d="M260.668 35.5496C261.828 38.345 259.075 74.9218 254.768 85.8279C254.394 86.7728 214.039 86.0248 212.584 86.4185C209.398 87.2454 208.651 84.6665 209.319 82.4813C212.102 73.127 213.739 63.4693 214.196 53.7199C215.105 48.4119 215.696 43.0544 215.966 37.6757C215.941 37.019 216.116 36.3701 216.467 35.8148C216.818 35.2594 217.329 34.8238 217.933 34.5653C220.115 34.0865 222.351 33.9077 224.58 34.0338C259.587 35.4512 259.764 33.3448 260.668 35.5496ZM258.564 38.8372C258.721 37.1442 257.62 37.1836 255.731 37.4789C253.844 37.7741 234.571 37.341 231.561 37.2229C227.493 36.7813 223.395 36.6826 219.31 36.9276C218.169 36.9276 216.911 56.7318 216.911 56.7712C216.278 65.9344 214.662 75.0027 212.092 83.82C225.072 82.5601 245.702 83.623 251.621 83.3081C253.47 83.3081 253.391 82.9734 253.588 81.1623C257.856 52.4206 254.827 79.5874 258.564 38.8372Z" fill="#000001"/>
<path d="M187.115 36.6717C187.345 39.0333 187.437 41.4062 187.391 43.7784C187.273 47.4006 181.885 82.3828 181.373 82.4615C180.39 82.619 179.702 83.5049 178.542 83.3868C175.473 82.9632 172.368 82.8642 169.279 83.0915C165.719 83.4852 164.244 82.9734 158.541 83.2884C133.86 84.568 141.273 87.954 146.446 49.822C147.43 37.2426 146.583 35.2543 151.776 36.0418C152.837 36.2189 151.776 36.3174 158.266 35.1756C172.543 32.6361 166.978 35.904 184.52 34.4669C186.389 34.3094 186.939 34.7031 187.115 36.6717ZM182.907 55.9641C185.149 39.9199 184.874 45.9832 184.874 37.6167C182.907 37.4198 180.272 37.8726 176.83 37.7938C165.149 37.5576 166.997 36.6717 162.336 37.4198C154.607 38.6403 152.779 39.5065 150.655 38.6403C149.691 38.2466 149.671 39.9593 149.317 47.3219C149.023 53.6411 148.53 52.8734 147.017 61.8896C145.05 74.2328 145.05 75.1383 144.264 79.7842C143.948 81.7528 145.187 81.1229 147.35 80.9851C158.817 80.3551 158.698 79.8827 160.684 79.9811C167.883 80.2961 172.209 79.1937 177.578 80.2173C178.935 80.5323 179.132 82.6978 182.907 55.9641Z" fill="#000001"/>
<path d="M165.62 200.735C178.423 202.389 180.96 201.07 180.586 204.436C178.62 223.06 172.189 258.908 170.243 264.715C169.888 265.779 167.883 266.153 166.643 265.543C165.404 264.932 162.926 265.66 160.979 265.424C153.284 264.415 145.708 262.641 138.363 260.128C135.905 259.085 132.817 259.892 130.969 259.518C124.853 258.278 123.476 258.869 123.692 257.353C124.989 248.002 125.501 249.478 126.878 243.395C127.586 240.226 126.327 244.695 129.769 226.997C130.188 224.315 130.3 221.594 130.103 218.887C130.103 214.634 131.146 214.772 133.545 201.169C134.273 197.074 137.046 198.688 143.063 199.515C143.767 199.518 144.47 199.471 145.168 199.378C163.064 199.495 158.776 199.83 165.62 200.735ZM167.725 262.333C171.462 243.317 175.179 224.399 177.971 205.243C169.986 205.243 159.229 202.625 154.056 202.606C142.257 202.606 145.639 203.551 136.101 201.346C134.764 213.414 134.647 209.024 133.486 216.209C132.659 221.268 134.351 219.103 131.814 232.155C128.609 248.652 133.467 230.048 126.563 256.25C128.753 256.81 131.01 257.062 133.27 256.998C137.026 256.349 141.136 258.179 145.226 259.263C167.135 265.089 164.637 260.699 167.725 262.333Z" fill="#000001"/>
<path d="M166.84 301.233C169.534 301.923 168.512 303.537 168.236 307.474C167.528 317.908 167.98 316.667 167.725 318.635C166.643 326.864 164.48 339.523 164.008 343.46C161.786 361.531 163.044 363.244 159.603 362.26C147.017 358.677 148.55 358.992 145.837 357.378C137.97 352.672 137.065 356.354 125.127 350.055C120.801 347.771 122.177 348.854 125.246 331.234C125.777 328.105 127.212 315.052 127.92 310.899C130.792 291.055 130.104 293.024 133.171 293.181C140.015 294.54 138.54 295.15 144.007 295.898C148.295 296.37 150.339 297.06 166.84 301.233ZM159.485 358.855C162.357 331.628 167.646 304.954 165.247 304.305C139.366 297.276 143.909 299.717 132.699 295.701C132.464 297.828 129.199 320.231 128.766 326.983C128.49 331.608 127.35 332.711 125.423 346.117C125.285 347.082 126.936 347.83 129.238 348.815C135.276 351.452 134.744 350.448 137.694 351.058C149.749 353.618 140.644 353.224 159.485 358.855Z" fill="#000001"/>
<path d="M119.64 35.6087C123.574 35.4118 124.105 33.5219 119.778 61.8305C118.953 67.1458 117.399 74.1343 116.12 80.1976C115.766 81.8907 113.976 81.3985 111.636 81.2607C89.4133 79.9417 82.1368 83.2293 81.8024 77.855C90.7703 28.6398 84.9097 36.3174 94.3102 35.904C98.4598 35.7268 114.272 35.8843 119.64 35.6087ZM114.173 75.2171C116.14 68.7797 120.388 38.7388 119.759 38.7191C113.643 38.4435 112.502 38.8372 98.1255 38.601C92.6386 38.5025 96.0212 39.034 90.5539 38.601C90.5539 42.5382 87.3287 65.2559 87.309 65.2953C84.5164 78.3472 83.5724 78.2684 86.1094 78.1897C90.6843 77.7517 95.2813 77.5873 99.8762 77.6975C116.552 77.6188 112.698 79.7645 114.173 75.2171Z" fill="#000001"/>
<path d="M102.433 283.732C105.579 284.461 104.104 286.233 103.239 295.13C99.3058 334.877 99.7578 340.015 95.9034 338.695C91.6463 337.005 87.2509 335.688 82.7663 334.758C70.9665 331.668 78.597 333.479 71.1828 332.435C68.9212 332.121 66.5809 329.896 63.3163 330.27C59.147 330.743 61.3496 320.82 68.3115 280.228C68.7639 277.491 67.9575 275.483 70.2782 276.035C73.4248 276.764 80.3473 277.787 86.0112 278.869C95.1954 280.602 96.8867 282.354 102.433 283.732ZM96.1983 335.349C98.0076 319.167 99.8241 303.011 101.646 286.882C91.7771 283.276 81.5616 280.703 71.1631 279.204C63.5719 334.128 61.33 326.451 68.5475 328.262C70.0618 328.636 71.5171 329.266 73.0314 329.581C76.9014 329.717 80.725 330.467 84.3593 331.805C88.3883 332.691 92.3455 333.875 96.1983 335.349Z" fill="#000001"/>
<path d="M84.1624 175.872C85.4014 178.018 87.6827 178.963 87.545 180.932C87.545 181.226 86.896 181.463 86.424 181.817C84.6477 180.823 83.1523 179.394 82.0778 177.663C79.1278 172.584 77.1022 172.584 76.6892 171.167C76.1778 169.395 77.6922 168.765 78.6558 169.572C80.876 171.302 82.7452 173.44 84.1624 175.872Z" fill="#000001"/>
</svg>
