<svg width="159" height="27" viewBox="0 0 159 27" fill="none" xmlns="http://www.w3.org/2000/svg">
<path d="M28.1706 10.2513L17.4472 17.8315H12.6812L1.95785 10.2513L15.0642 1.58823L28.1706 10.2513Z" fill="#969FA4"/>
<path fill-rule="evenodd" clip-rule="evenodd" d="M14.4581 0.687181C14.8249 0.444686 15.3029 0.444686 15.6697 0.687181L28.7761 9.3503C29.0799 9.55115 29.2625 9.88926 29.2625 10.2513V24.3289C29.2625 24.9033 29.0323 25.4541 28.6226 25.8603C28.213 26.2665 27.6574 26.4947 27.078 26.4947H3.04975C2.47042 26.4947 1.9148 26.2665 1.50515 25.8603C1.0955 25.4541 0.865356 24.9033 0.865356 24.3289V10.2513C0.865356 9.88926 1.04787 9.55115 1.35171 9.3503L14.4581 0.687181ZM3.04975 10.8309V24.3289H27.078V10.8309L15.0639 2.88967L3.04975 10.8309Z" fill="#969FA4"/>
<path fill-rule="evenodd" clip-rule="evenodd" d="M13.5732 17.2068C13.9213 17.6952 13.804 18.371 13.3113 18.716L2.92471 25.9902C2.43202 26.3353 1.7505 26.2189 1.40248 25.7305C1.05446 25.242 1.17175 24.5663 1.66444 24.2212L12.051 16.9471C12.5437 16.602 13.2253 16.7183 13.5732 17.2068Z" fill="#969FA4"/>
<path fill-rule="evenodd" clip-rule="evenodd" d="M16.555 17.2067C16.9029 16.7183 17.5845 16.602 18.0771 16.947L28.464 24.2213C28.9566 24.5663 29.0739 25.242 28.7259 25.7305C28.3779 26.219 27.6964 26.3353 27.2037 25.9902L16.8169 18.716C16.3242 18.3709 16.2069 17.6952 16.555 17.2067Z" fill="#969FA4"/>
<path fill-rule="evenodd" clip-rule="evenodd" d="M1.06833 9.62265C1.4185 9.13569 2.10053 9.02238 2.59169 9.36964L13.0304 16.7486H17.0975L27.5363 9.36964C28.0275 9.02238 28.7095 9.13569 29.0597 9.62265C29.4098 10.1097 29.2955 10.7859 28.8044 11.1331L18.0811 18.7133C17.896 18.8441 17.6744 18.9145 17.447 18.9145H12.681C12.4536 18.9145 12.232 18.8441 12.0469 18.7133L1.32359 11.1331C0.832436 10.7859 0.718152 10.1097 1.06833 9.62265Z" fill="#969FA4"/>
<path d="M41.0166 22.5038C40.7238 22.5038 40.4772 22.4045 40.2769 22.2059C40.0765 22.0072 39.9764 21.7627 39.9764 21.4724V7.78959C39.9764 7.37704 40.1228 7.0256 40.4156 6.73529C40.7084 6.4297 41.0628 6.27691 41.479 6.27691H41.7794C42.2726 6.27691 42.6964 6.5061 43.0509 6.96449L51.9506 19.7077V7.3312C51.9506 7.04089 52.0508 6.79642 52.2512 6.59777C52.4515 6.38386 52.698 6.27691 52.9908 6.27691C53.2837 6.27691 53.5303 6.38386 53.7306 6.59777C53.9463 6.79642 54.0542 7.04089 54.0542 7.3312V21.014C54.0542 21.4266 53.9001 21.7781 53.5919 22.0683C53.2991 22.3586 52.9446 22.5038 52.5285 22.5038H52.2512C52.0046 22.5038 51.7734 22.4504 51.5576 22.3434C51.3419 22.2211 51.1647 22.0683 51.026 21.885L42.0799 9.07307V21.4724C42.0799 21.7627 41.972 22.0072 41.7563 22.2059C41.556 22.4045 41.3094 22.5038 41.0166 22.5038Z" fill="#969FA4"/>
<path d="M63.0017 22.6185C61.8151 22.6185 60.7748 22.3663 59.881 21.8621C58.9871 21.3578 58.2937 20.6474 57.8005 19.7306C57.3227 18.7986 57.0839 17.7366 57.0839 16.5448C57.0839 15.353 57.3227 14.2987 57.8005 13.3819C58.2937 12.4498 58.9871 11.7317 59.881 11.2275C60.7748 10.7233 61.8151 10.4712 63.0017 10.4712C64.1729 10.4712 65.2054 10.7233 66.0993 11.2275C66.9931 11.7317 67.6866 12.4498 68.1797 13.3819C68.6729 14.2987 68.9195 15.353 68.9195 16.5448C68.9195 17.7366 68.6729 18.7986 68.1797 19.7306C67.6866 20.6474 66.9931 21.3578 66.0993 21.8621C65.2054 22.3663 64.1729 22.6185 63.0017 22.6185ZM63.0017 20.7161C63.6335 20.7161 64.2346 20.571 64.8048 20.2806C65.3904 19.9903 65.8681 19.5319 66.238 18.9055C66.6233 18.279 66.8159 17.4844 66.8159 16.5219C66.8159 15.5745 66.6233 14.7877 66.238 14.1612C65.8681 13.5347 65.3904 13.084 64.8048 12.8089C64.2346 12.5186 63.6335 12.3734 63.0017 12.3734C62.3544 12.3734 61.738 12.5186 61.1524 12.8089C60.5822 13.084 60.1122 13.5347 59.7423 14.1612C59.3724 14.7877 59.1875 15.5745 59.1875 16.5219C59.1875 17.4844 59.3724 18.279 59.7423 18.9055C60.1122 19.5319 60.5822 19.9903 61.1524 20.2806C61.738 20.571 62.3544 20.7161 63.0017 20.7161Z" fill="#969FA4"/>
<path d="M75.2201 22.5038C74.9119 22.5038 74.6345 22.4121 74.3879 22.2288C74.1413 22.0454 73.9718 21.8162 73.8794 21.5412L70.5969 12.0068C70.5506 11.8692 70.5275 11.7394 70.5275 11.6171C70.5275 11.3268 70.6277 11.0823 70.828 10.8837C71.0284 10.6851 71.2749 10.5858 71.5677 10.5858C71.7835 10.5858 71.9761 10.6468 72.1457 10.7691C72.3306 10.8761 72.4538 11.0213 72.5155 11.2046L75.2201 20.0285L77.9016 11.4108C77.9787 11.1664 78.1174 10.9678 78.3177 10.8149C78.5334 10.6622 78.7724 10.5858 79.0343 10.5858C79.2963 10.5858 79.5275 10.6622 79.7278 10.8149C79.9435 10.9678 80.09 11.1664 80.167 11.4108L82.8485 20.0285L85.5531 11.2046C85.6147 11.0213 85.7303 10.8761 85.8999 10.7691C86.0848 10.6468 86.2852 10.5858 86.5009 10.5858C86.7937 10.5858 87.0403 10.6851 87.2406 10.8837C87.4409 11.0823 87.5411 11.3268 87.5411 11.6171C87.5411 11.7394 87.518 11.8692 87.4718 12.0068L84.1893 21.5412C84.0968 21.8162 83.9273 22.0454 83.6807 22.2288C83.4341 22.4121 83.1567 22.5038 82.8485 22.5038C82.5403 22.5038 82.2629 22.4121 82.0163 22.2288C81.7697 22.0454 81.5925 21.8086 81.4847 21.5182L79.0343 13.9319L76.584 21.5182C76.4761 21.8086 76.2989 22.0454 76.0523 22.2288C75.8057 22.4121 75.5283 22.5038 75.2201 22.5038Z" fill="#969FA4"/>
<path fill-rule="evenodd" clip-rule="evenodd" d="M43.1718 6.87182C43.1734 6.87378 43.1748 6.87577 43.1762 6.87779L51.7961 19.2201V7.33122C51.7961 7.00297 51.9108 6.71999 52.1396 6.49208C52.3685 6.24869 52.6551 6.1246 52.9899 6.1246C53.3238 6.1246 53.6098 6.24799 53.8384 6.49003C54.0825 6.71666 54.207 7.00016 54.207 7.33122V21.014C54.207 21.4688 54.0353 21.8593 53.6982 22.1775C53.3767 22.4956 52.9836 22.6562 52.5276 22.6562H52.2502C51.9803 22.6562 51.7256 22.5974 51.4881 22.4796C51.4855 22.4784 51.483 22.477 51.4805 22.4756C51.248 22.3439 51.0544 22.1777 50.9022 21.9764L50.8988 21.9718L42.2327 9.56073V21.4724C42.2327 21.8044 42.1075 22.0886 41.8621 22.3156C41.6322 22.5425 41.3468 22.6562 41.0157 22.6562C40.6837 22.6562 40.3976 22.5418 40.1673 22.3136C39.9371 22.0853 39.8218 21.8017 39.8218 21.4724V7.7896C39.8218 7.33753 39.9838 6.94776 40.3046 6.62899C40.6255 6.2948 41.0194 6.1246 41.478 6.1246H41.7785C42.3284 6.1246 42.7943 6.38352 43.1718 6.87182ZM40.4156 6.73529C40.7084 6.4297 41.0628 6.27691 41.479 6.27691H41.7794C42.2726 6.27691 42.6964 6.5061 43.0509 6.96449L51.9506 19.7077V7.3312C51.9506 7.04089 52.0508 6.79642 52.2512 6.59777C52.4515 6.38386 52.698 6.27691 52.9908 6.27691C53.2837 6.27691 53.5303 6.38386 53.7306 6.59777C53.9463 6.79642 54.0542 7.04089 54.0542 7.3312V21.014C54.0542 21.4266 53.9001 21.7781 53.5919 22.0683C53.2991 22.3586 52.9446 22.5038 52.5285 22.5038H52.2512C52.0046 22.5038 51.7734 22.4504 51.5576 22.3434C51.3419 22.2211 51.1647 22.0683 51.026 21.885L42.0799 9.07307V21.4724C42.0799 21.7627 41.972 22.0072 41.7563 22.2059C41.556 22.4045 41.3094 22.5038 41.0166 22.5038C40.7238 22.5038 40.4772 22.4045 40.2769 22.2059C40.0765 22.0072 39.9764 21.7627 39.9764 21.4724V7.78959C39.9764 7.37704 40.1228 7.0256 40.4156 6.73529ZM57.6626 19.7996C57.1725 18.8433 56.9294 17.7572 56.9294 16.5448C56.9294 15.3325 57.1725 14.2535 57.6631 13.312C58.1695 12.355 58.8838 11.6142 59.8041 11.0951C60.7245 10.5759 61.7917 10.3188 63.0008 10.3188C64.1949 10.3188 65.2543 10.5761 66.1744 11.0951C67.0944 11.6141 67.8082 12.3538 68.3146 13.3105C68.8211 14.2524 69.0722 15.3318 69.0722 16.5448C69.0722 17.7579 68.8211 18.8447 68.3149 19.8014L68.3144 19.8023C67.8079 20.744 67.0939 21.4757 66.1744 21.9945C65.2543 22.5135 64.1949 22.7708 63.0008 22.7708C61.7917 22.7708 60.7245 22.5137 59.8041 21.9945C58.8845 21.4757 58.1706 20.744 57.664 19.8023L57.6626 19.7996ZM68.1797 13.3819C67.6866 12.4498 66.9931 11.7317 66.0993 11.2275C65.2054 10.7233 64.1729 10.4712 63.0017 10.4712C61.8151 10.4712 60.7748 10.7233 59.881 11.2275C58.9871 11.7317 58.2937 12.4498 57.8005 13.3819C57.3227 14.2987 57.0839 15.353 57.0839 16.5448C57.0839 17.7366 57.3227 18.7986 57.8005 19.7306C58.2937 20.6474 58.9871 21.3578 59.881 21.8621C60.7748 22.3663 61.8151 22.6185 63.0017 22.6185C64.1729 22.6185 65.2054 22.3663 66.0993 21.8621C66.9931 21.3578 67.6866 20.6474 68.1797 19.7306C68.6729 18.7986 68.9195 17.7366 68.9195 16.5448C68.9195 15.353 68.6729 14.2987 68.1797 13.3819ZM64.7337 20.1452L64.7351 20.1444C65.291 19.8688 65.7478 19.4326 66.1045 18.8285L66.1059 18.8262C66.4725 18.23 66.6613 17.465 66.6613 16.5219C66.6613 15.5945 66.4728 14.8371 66.1059 14.2405L66.1045 14.2382C65.7482 13.6346 65.2922 13.2069 64.7381 12.9466L64.7336 12.9445C64.1849 12.6651 63.6079 12.5258 63.0008 12.5258C62.3776 12.5258 61.7848 12.6653 61.2202 12.9452L61.2187 12.9459C60.6798 13.2058 60.2309 13.6335 59.8739 14.2382C59.5215 14.8351 59.3402 15.5936 59.3402 16.5219C59.3402 17.466 59.5217 18.2318 59.8739 18.8285C60.231 19.4334 60.6806 19.8695 61.221 20.1448C61.7853 20.4244 62.378 20.5638 63.0008 20.5638C63.6079 20.5638 64.1849 20.4246 64.7337 20.1452ZM61.1524 20.2806C60.5822 19.9903 60.1122 19.5319 59.7423 18.9055C59.3724 18.279 59.1875 17.4844 59.1875 16.5219C59.1875 15.5745 59.3724 14.7877 59.7423 14.1612C60.1122 13.5347 60.5822 13.084 61.1524 12.8089C61.738 12.5186 62.3544 12.3734 63.0017 12.3734C63.6335 12.3734 64.2346 12.5186 64.8048 12.8089C65.3904 13.084 65.8681 13.5347 66.238 14.1612C66.6233 14.7877 66.8159 15.5745 66.8159 16.5219C66.8159 17.4844 66.6233 18.279 66.238 18.9055C65.8681 19.5319 65.3904 19.9903 64.8048 20.2806C64.2346 20.571 63.6335 20.7161 63.0017 20.7161C62.3544 20.7161 61.738 20.571 61.1524 20.2806ZM87.4718 12.0068L84.1893 21.5412C84.0968 21.8162 83.9273 22.0454 83.6807 22.2288C83.4341 22.4121 83.1567 22.5038 82.8485 22.5038C82.5403 22.5038 82.2629 22.4121 82.0163 22.2288C81.7697 22.0454 81.5925 21.8086 81.4847 21.5182L79.0343 13.9319L76.584 21.5182C76.4761 21.8086 76.2989 22.0454 76.0523 22.2288C75.8057 22.4121 75.5283 22.5038 75.2201 22.5038C74.9119 22.5038 74.6345 22.4121 74.3879 22.2288C74.1413 22.0454 73.9718 21.8162 73.8794 21.5412L70.5969 12.0068C70.5506 11.8692 70.5275 11.7394 70.5275 11.6171C70.5275 11.3268 70.6277 11.0823 70.828 10.8837C71.0284 10.6851 71.2749 10.5858 71.5677 10.5858C71.7835 10.5858 71.9761 10.6468 72.1457 10.7691C72.3306 10.8761 72.4538 11.0213 72.5155 11.2046L75.2201 20.0285L77.9016 11.4108C77.9787 11.1664 78.1174 10.9678 78.3177 10.8149C78.5334 10.6622 78.7724 10.5858 79.0343 10.5858C79.2963 10.5858 79.5275 10.6622 79.7278 10.8149C79.9435 10.9678 80.09 11.1664 80.167 11.4108L82.8485 20.0285L85.5531 11.2046C85.6147 11.0213 85.7303 10.8761 85.8999 10.7691C86.0848 10.6468 86.2852 10.5858 86.5009 10.5858C86.7937 10.5858 87.0403 10.6851 87.2406 10.8837C87.4409 11.0823 87.5411 11.3268 87.5411 11.6171C87.5411 11.7394 87.518 11.8692 87.4718 12.0068ZM85.8151 10.6414C86.0241 10.5037 86.2535 10.4334 86.5 10.4334C86.832 10.4334 87.1181 10.5478 87.3484 10.776C87.5786 11.0043 87.6938 11.2879 87.6938 11.6172C87.6938 11.7584 87.6671 11.9047 87.6166 12.0549L87.6163 12.056L84.3341 21.5894C84.3342 21.5891 84.334 21.5897 84.3341 21.5894C84.2312 21.8951 84.0419 22.15 83.772 22.3506C83.4988 22.5538 83.189 22.6562 82.8476 22.6562C82.5061 22.6562 82.1964 22.5538 81.9232 22.3506C81.6526 22.1494 81.4575 21.8885 81.3396 21.5709C81.3389 21.5689 81.3381 21.5668 81.3374 21.5648L79.0334 14.4314L76.7293 21.5648C76.7287 21.5668 76.728 21.5689 76.7272 21.5709C76.6093 21.8885 76.4142 22.1494 76.1436 22.3506C75.8704 22.5538 75.5607 22.6562 75.2192 22.6562C74.8777 22.6562 74.568 22.5538 74.2949 22.3506C74.0249 22.15 73.8359 21.8959 73.7329 21.5902C73.733 21.5904 73.7329 21.5899 73.7329 21.5902L70.4502 12.0549C70.3997 11.9047 70.3729 11.7584 70.3729 11.6172C70.3729 11.2879 70.4883 11.0043 70.7184 10.776C70.9487 10.5478 71.2348 10.4334 71.5669 10.4334C71.8114 10.4334 72.0338 10.5027 72.2289 10.6414C72.4391 10.7648 72.5865 10.9367 72.6604 11.1564L72.6617 11.1603L75.2203 19.5083L77.7539 11.366C77.8401 11.0922 77.9971 10.8666 78.2232 10.6942L78.2275 10.691C78.4689 10.52 78.739 10.4334 79.0334 10.4334C79.327 10.4334 79.5906 10.5196 79.8183 10.6925C80.0594 10.8639 80.2257 11.0892 80.3127 11.3655L82.8465 19.5083L85.4064 11.1564C85.4794 10.9393 85.6175 10.7665 85.8151 10.6414Z" fill="#969FA4"/>
<path d="M92.3096 22.5038C92.0162 22.5038 91.7693 22.4045 91.5691 22.2059C91.3688 22.0072 91.2686 21.7627 91.2686 21.4724V7.3312C91.2686 7.04089 91.3688 6.79642 91.5691 6.59777C91.7693 6.38386 92.0162 6.27691 92.3096 6.27691C92.6021 6.27691 92.849 6.38386 93.0492 6.59777C93.2645 6.79642 93.3725 7.04089 93.3725 7.3312V21.4724C93.3725 21.7627 93.2645 22.0072 93.0492 22.2059C92.849 22.4045 92.6021 22.5038 92.3096 22.5038Z" fill="#969FA4"/>
<path d="M98.2594 22.5038C97.966 22.5038 97.72 22.4045 97.5197 22.2059C97.3194 22.0072 97.2193 21.7627 97.2193 21.4724V11.6401C97.2193 11.3497 97.3194 11.1052 97.5197 10.9066C97.72 10.6927 97.966 10.5858 98.2594 10.5858C98.5519 10.5858 98.7987 10.6927 98.999 10.9066C99.2142 11.1052 99.3223 11.3497 99.3223 11.6401V12.5798C99.9082 11.9379 100.54 11.4262 101.218 11.0442C101.896 10.6622 102.697 10.4712 103.622 10.4712C104.47 10.4712 105.202 10.6698 105.818 11.0671C106.45 11.4643 106.928 12.0068 107.251 12.6943C107.59 13.3819 107.76 14.1383 107.76 14.9633V21.4724C107.76 21.7627 107.652 22.0072 107.437 22.2059C107.236 22.4045 106.989 22.5038 106.697 22.5038C106.403 22.5038 106.158 22.4045 105.957 22.2059C105.756 22.0072 105.656 21.7627 105.656 21.4724V15.1926C105.656 13.3284 104.809 12.3963 103.114 12.3963C102.343 12.3963 101.649 12.595 101.033 12.9923C100.432 13.3896 99.8617 13.9244 99.3223 14.5967V21.4724C99.3223 21.7627 99.2142 22.0072 98.999 22.2059C98.7987 22.4045 98.5519 22.5038 98.2594 22.5038Z" fill="#969FA4"/>
<path fill-rule="evenodd" clip-rule="evenodd" d="M92.3087 22.6562C91.9767 22.6562 91.6912 22.5418 91.461 22.3136C91.2308 22.0853 91.1149 21.8017 91.1149 21.4724V7.33122C91.1149 7.00297 91.23 6.72 91.4584 6.49209C91.6876 6.24869 91.974 6.1246 92.3087 6.1246C92.6425 6.1246 92.9289 6.24799 93.1573 6.49003C93.4015 6.71666 93.5262 7.00015 93.5262 7.33122V21.4724C93.5262 21.8044 93.4006 22.0886 93.1555 22.3156C92.9254 22.5425 92.6399 22.6562 92.3087 22.6562ZM93.0492 22.2059C93.2645 22.0072 93.3725 21.7627 93.3725 21.4724V7.3312C93.3725 7.04089 93.2645 6.79642 93.0492 6.59777C92.849 6.38386 92.6021 6.27691 92.3096 6.27691C92.0162 6.27691 91.7693 6.38386 91.5691 6.59777C91.3688 6.79642 91.2686 7.04089 91.2686 7.3312V21.4724C91.2686 21.7627 91.3688 22.0072 91.5691 22.2059C91.7693 22.4045 92.0162 22.5038 92.3096 22.5038C92.6021 22.5038 92.849 22.4045 93.0492 22.2059ZM98.2594 22.6562C97.9273 22.6562 97.6409 22.5418 97.4108 22.3136C97.1806 22.0853 97.0647 21.8017 97.0647 21.4724V11.6401C97.0647 11.3118 97.1797 11.0288 97.409 10.8009C97.6374 10.5575 97.9238 10.4334 98.2594 10.4334C98.5932 10.4334 98.8787 10.5569 99.1071 10.7989C99.3513 11.0255 99.476 11.309 99.476 11.6401V12.1965C99.9952 11.6734 100.55 11.2447 101.142 10.9117C101.847 10.5144 102.675 10.3188 103.622 10.3188C104.495 10.3188 105.256 10.5235 105.901 10.9389C106.557 11.3518 107.054 11.9163 107.39 12.6287C107.74 13.3384 107.914 14.1175 107.914 14.9633V21.4724C107.914 21.8044 107.788 22.0886 107.543 22.3156C107.313 22.5425 107.027 22.6562 106.696 22.6562C106.364 22.6562 106.078 22.5418 105.848 22.3136C105.618 22.0853 105.502 21.8017 105.502 21.4724V15.1926C105.502 14.2803 105.295 13.6246 104.907 13.1975C104.521 12.7733 103.933 12.5487 103.114 12.5487C102.371 12.5487 101.707 12.7394 101.118 13.1195C100.544 13.4983 99.9969 14.0075 99.476 14.6501V21.4724C99.476 21.8044 99.3504 22.0886 99.1053 22.3156C98.8751 22.5425 98.5897 22.6562 98.2594 22.6562ZM98.999 22.2059C99.2142 22.0072 99.3223 21.7627 99.3223 21.4724V14.5967C99.8617 13.9244 100.432 13.3896 101.033 12.9923C101.649 12.595 102.343 12.3963 103.114 12.3963C104.809 12.3963 105.656 13.3284 105.656 15.1926V21.4724C105.656 21.7627 105.756 22.0072 105.957 22.2059C106.158 22.4045 106.403 22.5038 106.697 22.5038C106.989 22.5038 107.236 22.4045 107.437 22.2059C107.652 22.0072 107.76 21.7627 107.76 21.4724V14.9633C107.76 14.1383 107.59 13.3819 107.251 12.6943C106.928 12.0068 106.45 11.4643 105.818 11.0671C105.202 10.6698 104.47 10.4712 103.622 10.4712C102.697 10.4712 101.896 10.6622 101.218 11.0442C100.599 11.393 100.018 11.8501 99.476 12.4155C99.4242 12.4692 99.3732 12.524 99.3223 12.5798V11.6401C99.3223 11.3497 99.2142 11.1052 98.999 10.9066C98.7987 10.6927 98.5519 10.5858 98.2594 10.5858C97.966 10.5858 97.72 10.6927 97.5197 10.9066C97.3194 11.1052 97.2193 11.3497 97.2193 11.6401V21.4724C97.2193 21.7627 97.3194 22.0072 97.5197 22.2059C97.72 22.4045 97.966 22.5038 98.2594 22.5038C98.5519 22.5038 98.7987 22.4045 98.999 22.2059Z" fill="#969FA4"/>
<path d="M114.904 22.5037C114.611 22.5037 114.365 22.4045 114.164 22.2058C113.963 22.0071 113.863 21.7627 113.863 21.4723V8.33957H109.148C108.87 8.33957 108.639 8.24789 108.455 8.06454C108.269 7.88119 108.177 7.65199 108.177 7.37696C108.177 7.10192 108.269 6.87273 108.455 6.68937C108.639 6.49074 108.87 6.39142 109.148 6.39142H120.66C120.937 6.39142 121.169 6.49074 121.353 6.68937C121.553 6.87273 121.653 7.10192 121.653 7.37696C121.653 7.65199 121.553 7.88119 121.353 8.06454C121.169 8.24789 120.937 8.33957 120.66 8.33957H115.967V21.4723C115.967 21.7627 115.859 22.0071 115.644 22.2058C115.444 22.4045 115.197 22.5037 114.904 22.5037Z" fill="#969FA4"/>
<path d="M127.57 22.6184C125.69 22.6184 124.218 22.0912 123.155 21.0369C122.107 19.9673 121.582 18.4699 121.582 16.5447C121.582 15.4599 121.783 14.4591 122.184 13.5423C122.585 12.6255 123.2 11.8845 124.033 11.3191C124.865 10.7538 125.89 10.4711 127.108 10.4711C128.248 10.4711 129.234 10.7384 130.066 11.2732C130.898 11.7928 131.531 12.4956 131.962 13.3818C132.393 14.2528 132.609 15.2077 132.609 16.2467C132.609 16.5371 132.509 16.7816 132.309 16.9802C132.124 17.1788 131.87 17.2781 131.546 17.2781H123.709C123.833 18.3477 124.233 19.1804 124.912 19.7763C125.59 20.3722 126.538 20.6702 127.755 20.6702C128.402 20.6702 128.965 20.609 129.442 20.4868C129.935 20.3646 130.413 20.1889 130.875 19.9597C130.998 19.8986 131.137 19.868 131.292 19.868C131.538 19.868 131.754 19.9521 131.938 20.1202C132.124 20.2882 132.216 20.5021 132.216 20.7619C132.216 21.098 132.016 21.3807 131.615 21.6099C131.014 21.9461 130.42 22.1981 129.835 22.3662C129.249 22.5343 128.495 22.6184 127.57 22.6184ZM130.528 15.5821C130.483 14.8334 130.282 14.2069 129.928 13.7027C129.588 13.1985 129.165 12.8317 128.656 12.6026C128.148 12.3581 127.631 12.2359 127.108 12.2359C126.583 12.2359 126.068 12.3581 125.559 12.6026C125.05 12.8317 124.626 13.1985 124.287 13.7027C123.948 14.2069 123.756 14.8334 123.709 15.5821H130.528Z" fill="#969FA4"/>
<path d="M140.848 22.6184C139.738 22.6184 138.714 22.3739 137.774 21.8849C136.833 21.396 136.079 20.6931 135.508 19.7763C134.953 18.8595 134.676 17.7823 134.676 16.5447C134.676 15.307 134.953 14.2298 135.508 13.313C136.079 12.3963 136.833 11.6935 137.774 11.2045C138.714 10.7155 139.738 10.4711 140.848 10.4711C141.665 10.4711 142.366 10.578 142.952 10.7919C143.552 10.9906 144.108 11.2503 144.616 11.5712C144.925 11.7698 145.078 12.0372 145.078 12.3733C145.078 12.6026 144.986 12.8165 144.801 13.0152C144.631 13.1985 144.431 13.2901 144.2 13.2901C144.03 13.2901 143.861 13.2443 143.691 13.1526C143.183 12.8929 142.743 12.7095 142.374 12.6026C142.019 12.4803 141.572 12.4192 141.033 12.4192C139.707 12.4192 138.667 12.8012 137.912 13.5652C137.157 14.3139 136.78 15.307 136.78 16.5447C136.78 17.7823 137.157 18.7831 137.912 19.5472C138.667 20.2958 139.707 20.6702 141.033 20.6702C141.572 20.6702 142.019 20.6167 142.374 20.5098C142.743 20.3876 143.183 20.1966 143.691 19.9367C143.861 19.8451 144.03 19.7992 144.2 19.7992C144.431 19.7992 144.631 19.8986 144.801 20.0972C144.986 20.2806 145.078 20.4868 145.078 20.716C145.078 21.0522 144.925 21.3196 144.616 21.5182C144.108 21.8391 143.552 22.1065 142.952 22.3204C142.366 22.519 141.665 22.6184 140.848 22.6184Z" fill="#969FA4"/>
<path d="M148.758 22.5037C148.466 22.5037 148.219 22.4045 148.018 22.2058C147.818 22.0071 147.718 21.7627 147.718 21.4723V6.5977C147.718 6.30739 147.818 6.06291 148.018 5.86428C148.219 5.65037 148.466 5.54341 148.758 5.54341C149.052 5.54341 149.297 5.65037 149.498 5.86428C149.714 6.06291 149.822 6.30739 149.822 6.5977V12.5797C150.408 11.9379 151.039 11.4261 151.718 11.0441C152.396 10.6621 153.197 10.4711 154.121 10.4711C154.969 10.4711 155.701 10.6697 156.317 11.067C156.95 11.4642 157.427 12.0067 157.751 12.6943C158.09 13.3818 158.259 14.1382 158.259 14.9633V21.4723C158.259 21.7627 158.151 22.0071 157.935 22.2058C157.735 22.4045 157.489 22.5037 157.196 22.5037C156.903 22.5037 156.656 22.4045 156.456 22.2058C156.256 22.0071 156.156 21.7627 156.156 21.4723V15.1925C156.156 13.3284 155.308 12.3963 153.613 12.3963C152.842 12.3963 152.149 12.5949 151.532 12.9922C150.931 13.3895 150.361 13.9243 149.822 14.5966V21.4723C149.822 21.7627 149.714 22.0071 149.498 22.2058C149.297 22.4045 149.052 22.5037 148.758 22.5037Z" fill="#969FA4"/>
<path fill-rule="evenodd" clip-rule="evenodd" d="M123.044 21.1431C121.961 20.0375 121.429 18.4976 121.429 16.5448C121.429 15.4409 121.633 14.4192 122.043 13.4817C122.455 12.5387 123.09 11.7751 123.946 11.1935C124.809 10.6075 125.866 10.3188 127.108 10.3188C128.273 10.3188 129.288 10.5922 130.149 11.1449C131.005 11.6797 131.656 12.4041 132.1 13.3153C132.543 14.2085 132.762 15.1865 132.762 16.2468C132.762 16.575 132.648 16.8579 132.42 17.0858C132.2 17.32 131.902 17.4305 131.546 17.4305H123.884C124.025 18.3878 124.405 19.1274 125.014 19.6624C125.655 20.2263 126.561 20.5179 127.754 20.5179C128.393 20.5179 128.942 20.4577 129.404 20.3394C129.886 20.2199 130.355 20.0479 130.807 19.8235C130.954 19.7506 131.116 19.7158 131.292 19.7158C131.577 19.7158 131.829 19.8146 132.042 20.0079C132.261 20.2062 132.37 20.4617 132.37 20.762C132.37 21.1717 132.12 21.4967 131.692 21.7419L131.691 21.7426C131.08 22.0839 130.477 22.3409 129.878 22.5126C129.273 22.6861 128.502 22.7707 127.57 22.7707C125.659 22.7707 124.145 22.2343 123.046 21.1447L123.044 21.1431ZM123.729 17.4305C123.721 17.3803 123.715 17.3294 123.709 17.2781H131.546C131.87 17.2781 132.124 17.1788 132.309 16.9802C132.509 16.7816 132.609 16.5371 132.609 16.2467C132.609 15.2077 132.393 14.2528 131.962 13.3818C131.531 12.4956 130.898 11.7928 130.066 11.2732C129.234 10.7384 128.248 10.4711 127.108 10.4711C125.89 10.4711 124.865 10.7538 124.033 11.3191C123.2 11.8845 122.585 12.6255 122.184 13.5423C121.783 14.4591 121.582 15.4599 121.582 16.5447C121.582 18.4699 122.107 19.9673 123.155 21.0369C124.218 22.0912 125.69 22.6184 127.57 22.6184C128.495 22.6184 129.249 22.5343 129.835 22.3662C130.42 22.1981 131.014 21.9461 131.615 21.6099C132.016 21.3807 132.216 21.098 132.216 20.7619C132.216 20.5021 132.124 20.2882 131.938 20.1202C131.754 19.9521 131.538 19.868 131.292 19.868C131.137 19.868 130.998 19.8986 130.875 19.9597C130.413 20.1889 129.935 20.3646 129.442 20.4868C128.965 20.609 128.402 20.6702 127.755 20.6702C126.538 20.6702 125.59 20.3722 124.912 19.7763C124.266 19.209 123.872 18.4271 123.729 17.4305ZM129.799 13.7873C129.475 13.3044 129.073 12.9577 128.592 12.7413L128.589 12.7398C128.1 12.5045 127.607 12.3882 127.108 12.3882C126.609 12.3882 126.115 12.5045 125.626 12.7397L125.622 12.7413C125.142 12.9577 124.739 13.3044 124.415 13.7873C124.118 14.2286 123.937 14.7742 123.875 15.4298H130.362C130.3 14.7754 130.111 14.2308 129.801 13.7899L129.799 13.7873ZM130.517 15.4298C130.521 15.48 130.526 15.5307 130.528 15.5821H123.709C123.713 15.5307 123.716 15.48 123.72 15.4298C123.783 14.7481 123.972 14.1723 124.287 13.7027C124.626 13.1985 125.05 12.8317 125.559 12.6026C126.068 12.3581 126.583 12.2359 127.108 12.2359C127.631 12.2359 128.148 12.3581 128.656 12.6026C129.165 12.8317 129.588 13.1985 129.928 13.7027C130.258 14.1723 130.454 14.7481 130.517 15.4298ZM135.378 19.8564L135.377 19.8548C134.805 18.9108 134.522 17.8056 134.522 16.5448C134.522 15.2839 134.805 14.1788 135.377 13.2348L135.378 13.2332C135.962 12.2937 136.737 11.5716 137.702 11.0697C138.665 10.5688 139.714 10.3188 140.848 10.3188C141.676 10.3188 142.395 10.4271 143.002 10.6483C143.614 10.8505 144.18 11.1153 144.698 11.4428L144.7 11.4436C145.047 11.6675 145.232 11.9808 145.232 12.3734C145.232 12.6477 145.12 12.8971 144.914 13.1185C144.718 13.3301 144.477 13.4425 144.2 13.4425C144.001 13.4425 143.808 13.3889 143.619 13.2873C143.117 13.0305 142.687 12.852 142.33 12.7489L142.327 12.7478L142.323 12.7465C141.991 12.6318 141.562 12.5716 141.033 12.5716C139.739 12.5716 138.742 12.9436 138.022 13.6719L138.021 13.673C137.3 14.3882 136.933 15.3402 136.933 16.5448C136.933 17.749 137.299 18.709 138.021 19.4399C138.741 20.1533 139.738 20.5179 141.033 20.5179C141.562 20.5179 141.992 20.4654 142.327 20.3646C142.686 20.2458 143.117 20.059 143.619 19.8023C143.808 19.7006 144.001 19.647 144.2 19.647C144.48 19.647 144.72 19.7694 144.914 19.9941C145.12 20.2009 145.232 20.443 145.232 20.7161C145.232 21.1088 145.047 21.4221 144.7 21.646L144.698 21.6468C144.18 21.974 143.615 22.2463 143.003 22.4639L143.001 22.4646C142.395 22.6701 141.676 22.7707 140.848 22.7707C139.714 22.7707 138.665 22.5208 137.702 22.0198C136.737 21.5179 135.962 20.7959 135.378 19.8564ZM144.801 20.0972C144.631 19.8986 144.431 19.7992 144.2 19.7992C144.03 19.7992 143.861 19.8451 143.691 19.9367C143.183 20.1966 142.743 20.3876 142.374 20.5098C142.019 20.6167 141.572 20.6702 141.033 20.6702C139.707 20.6702 138.667 20.2958 137.912 19.5472C137.157 18.7831 136.78 17.7823 136.78 16.5447C136.78 15.307 137.157 14.3139 137.912 13.5652C138.667 12.8012 139.707 12.4192 141.033 12.4192C141.572 12.4192 142.019 12.4803 142.374 12.6026C142.743 12.7095 143.183 12.8929 143.691 13.1526C143.861 13.2443 144.03 13.2901 144.2 13.2901C144.431 13.2901 144.631 13.1985 144.801 13.0152C144.986 12.8165 145.078 12.6026 145.078 12.3733C145.078 12.0372 144.925 11.7698 144.616 11.5712C144.108 11.2503 143.552 10.9906 142.952 10.7919C142.366 10.578 141.665 10.4711 140.848 10.4711C139.738 10.4711 138.714 10.7155 137.774 11.2045C136.833 11.6935 136.079 12.3963 135.508 13.313C134.953 14.2298 134.676 15.307 134.676 16.5447C134.676 17.7823 134.953 18.8595 135.508 19.7763C136.079 20.6931 136.833 21.396 137.774 21.8849C138.714 22.3739 139.738 22.6184 140.848 22.6184C141.665 22.6184 142.366 22.519 142.952 22.3204C143.552 22.1065 144.108 21.8391 144.616 21.5182C144.925 21.3196 145.078 21.0522 145.078 20.716C145.078 20.4868 144.986 20.2806 144.801 20.0972ZM114.903 22.6562C114.571 22.6562 114.286 22.5418 114.056 22.3136C113.826 22.0853 113.71 21.8017 113.71 21.4724V8.49196H109.148C108.832 8.49196 108.561 8.38611 108.346 8.17232C108.13 7.95853 108.023 7.68974 108.023 7.37703C108.023 7.06537 108.13 6.79734 108.343 6.5839C108.557 6.3549 108.83 6.23918 109.148 6.23918H120.66C120.977 6.23918 121.248 6.35415 121.462 6.58167C121.691 6.79379 121.807 7.06238 121.807 7.37703C121.807 7.6927 121.69 7.96202 121.459 8.17446C121.244 8.38681 120.974 8.49196 120.66 8.49196H116.121V21.4724C116.121 21.8044 115.995 22.0886 115.75 22.3155C115.52 22.5425 115.235 22.6562 114.903 22.6562ZM115.644 22.2058C115.859 22.0071 115.967 21.7627 115.967 21.4723V8.33957H120.66C120.937 8.33957 121.169 8.24789 121.353 8.06454C121.553 7.88119 121.653 7.65199 121.653 7.37696C121.653 7.10192 121.553 6.87273 121.353 6.68937C121.169 6.49074 120.937 6.39142 120.66 6.39142H109.148C108.87 6.39142 108.639 6.49074 108.455 6.68937C108.269 6.87273 108.177 7.10192 108.177 7.37696C108.177 7.65199 108.269 7.88119 108.455 8.06454C108.639 8.24789 108.87 8.33957 109.148 8.33957H113.863V21.4723C113.863 21.7627 113.963 22.0071 114.164 22.2058C114.365 22.4045 114.611 22.5037 114.904 22.5037C115.197 22.5037 115.444 22.4045 115.644 22.2058ZM148.758 22.6562C148.426 22.6562 148.141 22.5418 147.91 22.3136C147.679 22.0853 147.564 21.8017 147.564 21.4724V6.59777C147.564 6.26951 147.679 5.98652 147.908 5.75861C148.137 5.51524 148.423 5.39116 148.758 5.39116C149.092 5.39116 149.378 5.51454 149.607 5.75658C149.851 5.98321 149.976 6.26671 149.976 6.59777V12.1965C150.495 11.6733 151.05 11.2447 151.641 10.9117C152.347 10.5144 153.175 10.3188 154.121 10.3188C154.993 10.3188 155.756 10.5235 156.401 10.9389C157.057 11.3518 157.553 11.9162 157.889 12.6285C158.239 13.3383 158.413 14.1174 158.413 14.9633V21.4724C158.413 21.8044 158.288 22.0886 158.042 22.3156C157.812 22.5425 157.527 22.6562 157.196 22.6562C156.864 22.6562 156.577 22.5418 156.347 22.3135C156.117 22.0853 156.002 21.8017 156.002 21.4724V15.1925C156.002 14.2803 155.795 13.6246 155.405 13.1974C155.02 12.7733 154.432 12.5487 153.612 12.5487C152.871 12.5487 152.207 12.7394 151.617 13.1195C151.044 13.4983 150.497 14.0075 149.976 14.6501V21.4724C149.976 21.8044 149.85 22.0886 149.605 22.3155C149.375 22.5425 149.089 22.6562 148.758 22.6562ZM149.498 22.2058C149.714 22.0071 149.822 21.7627 149.822 21.4723V14.5966C150.361 13.9243 150.931 13.3895 151.532 12.9922C152.149 12.5949 152.842 12.3963 153.613 12.3963C155.308 12.3963 156.156 13.3284 156.156 15.1925V21.4723C156.156 21.7627 156.256 22.0071 156.456 22.2058C156.656 22.4045 156.903 22.5037 157.196 22.5037C157.489 22.5037 157.735 22.4045 157.935 22.2058C158.151 22.0071 158.259 21.7627 158.259 21.4723V14.9633C158.259 14.1382 158.09 13.3818 157.751 12.6943C157.427 12.0067 156.95 11.4642 156.317 11.067C155.701 10.6697 154.969 10.4711 154.121 10.4711C153.197 10.4711 152.396 10.6621 151.718 11.0441C151.098 11.3929 150.518 11.8501 149.976 12.4155C149.924 12.4692 149.873 12.5239 149.822 12.5797V6.5977C149.822 6.30739 149.714 6.06291 149.498 5.86428C149.297 5.65037 149.052 5.54341 148.758 5.54341C148.466 5.54341 148.219 5.65037 148.018 5.86428C147.818 6.06291 147.718 6.30739 147.718 6.5977V21.4723C147.718 21.7627 147.818 22.0071 148.018 22.2058C148.219 22.4045 148.466 22.5037 148.758 22.5037C149.052 22.5037 149.297 22.4045 149.498 22.2058Z" fill="#969FA4"/>
</svg>
