<svg width="145" height="28" viewBox="0 0 145 28" fill="none" xmlns="http://www.w3.org/2000/svg">
<path d="M47.1941 21.3043C45.308 21.3043 43.6553 20.878 42.2361 20.0256C40.8349 19.1731 39.7302 17.9963 38.9218 16.4952C38.1315 14.9756 37.7362 13.2243 37.7362 11.2413C37.7362 9.25836 38.1315 7.51634 38.9218 6.01522C39.7302 4.49562 40.8349 3.30953 42.2361 2.45705C43.6553 1.60456 45.308 1.17832 47.1941 1.17832C49.0623 1.17832 50.7061 1.60456 52.1252 2.45705C53.5443 3.30953 54.6491 4.49562 55.4394 6.01522C56.2299 7.51634 56.6251 9.25836 56.6251 11.2413C56.6251 13.2243 56.2299 14.9756 55.4394 16.4952C54.6491 17.9963 53.5443 19.1731 52.1252 20.0256C50.7061 20.878 49.0623 21.3043 47.1941 21.3043ZM47.1941 18.1075C48.9905 18.1075 50.4186 17.4959 51.4784 16.2728C52.5563 15.0497 53.0952 13.3725 53.0952 11.2413C53.0952 9.11015 52.5563 7.4329 51.4784 6.20983C50.4186 4.98666 48.9905 4.37513 47.1941 4.37513C45.3978 4.37513 43.9606 4.98666 42.8828 6.20983C41.805 7.4329 41.2661 9.11015 41.2661 11.2413C41.2661 13.3725 41.805 15.0497 42.8828 16.2728C43.9606 17.4959 45.3978 18.1075 47.1941 18.1075Z" fill="#969FA4"/>
<path d="M59.5895 27.0864V7.18276H62.6613L63.0385 9.15644C63.4697 8.5449 64.0355 8.00748 64.7362 7.54416C65.4547 7.08084 66.3798 6.84918 67.5115 6.84918C68.769 6.84918 69.8917 7.16419 70.8798 7.7943C71.8677 8.42441 72.6491 9.28618 73.224 10.3796C73.7989 11.4729 74.0862 12.7146 74.0862 14.1046C74.0862 15.4944 73.7989 16.7361 73.224 17.8295C72.6491 18.9044 71.8677 19.7569 70.8798 20.387C69.8917 20.9985 68.769 21.3043 67.5115 21.3043C66.5056 21.3043 65.6254 21.1097 64.8709 20.7205C64.1164 20.3314 63.5056 19.7847 63.0385 19.0804V27.0864H59.5895ZM66.784 18.1909C67.8798 18.1909 68.787 17.811 69.5055 17.0512C70.2241 16.2913 70.5833 15.3092 70.5833 14.1046C70.5833 12.9 70.2241 11.9085 69.5055 11.1301C68.787 10.3518 67.8798 9.96259 66.784 9.96259C65.6703 9.96259 64.7541 10.3518 64.0356 11.1301C63.3349 11.89 62.9847 12.8721 62.9847 14.0767C62.9847 15.2813 63.3349 16.2728 64.0356 17.0512C64.7541 17.811 65.6703 18.1909 66.784 18.1909Z" fill="#969FA4"/>
<path d="M82.596 20.9707C81.1949 20.9707 80.0721 20.6186 79.2278 19.9143C78.3835 19.2101 77.9614 17.9592 77.9614 16.1616V10.1572H75.671V7.18276H77.9614L78.3656 3.48558H81.4105V7.18276H85.0211V10.1572H81.4105V16.1894C81.4105 16.8566 81.5451 17.3199 81.8146 17.5794C82.1021 17.8203 82.587 17.9407 83.2697 17.9407H84.9403V20.9707H82.596Z" fill="#969FA4"/>
<path d="M89.8416 5.04228C89.213 5.04228 88.692 4.84768 88.2788 4.45856C87.8837 4.06935 87.686 3.57824 87.686 2.98522C87.686 2.39219 87.8837 1.91035 88.2788 1.5397C88.692 1.15053 89.213 0.955933 89.8416 0.955933C90.4704 0.955933 90.9823 1.15053 91.3778 1.5397C91.791 1.91035 91.9977 2.39219 91.9977 2.98522C91.9977 3.57824 91.791 4.06935 91.3778 4.45856C90.9823 4.84768 90.4704 5.04228 89.8416 5.04228ZM88.1171 20.9707V7.18276H91.5658V20.9707H88.1171Z" fill="#969FA4"/>
<path d="M95.1662 20.9707V7.18276H98.2109L98.5078 9.04528C98.9388 8.37811 99.5047 7.84993 100.205 7.46071C100.923 7.05302 101.75 6.84918 102.684 6.84918C104.75 6.84918 106.214 7.67389 107.076 9.32323C107.561 8.56339 108.208 7.96109 109.016 7.51634C109.842 7.0716 110.741 6.84918 111.711 6.84918C113.453 6.84918 114.792 7.3866 115.726 8.46146C116.66 9.53632 117.127 11.1116 117.127 13.1872V20.9707H113.677V13.5207C113.677 12.3347 113.453 11.4267 113.004 10.7965C112.573 10.1664 111.899 9.85142 110.984 9.85142C110.049 9.85142 109.295 10.2035 108.72 10.9077C108.163 11.6119 107.885 12.5942 107.885 13.8543V20.9707H104.435V13.5207C104.435 12.3347 104.211 11.4267 103.761 10.7965C103.313 10.1664 102.621 9.85142 101.687 9.85142C100.771 9.85142 100.025 10.2035 99.4507 10.9077C98.8941 11.6119 98.6149 12.5942 98.6149 13.8543V20.9707H95.1662Z" fill="#969FA4"/>
<path d="M126.895 21.3043C125.548 21.3043 124.354 21.0078 123.311 20.4147C122.27 19.8218 121.452 18.9878 120.86 17.9129C120.267 16.838 119.971 15.5963 119.971 14.1879C119.971 12.761 120.257 11.4915 120.833 10.3796C121.425 9.26761 122.233 8.40593 123.257 7.7943C124.3 7.16419 125.521 6.84918 126.922 6.84918C128.233 6.84918 129.392 7.14571 130.399 7.73876C131.404 8.33173 132.186 9.1472 132.742 10.185C133.318 11.2042 133.604 12.344 133.604 13.6042C133.604 13.808 133.596 14.0211 133.578 14.2435C133.578 14.466 133.569 14.6976 133.551 14.9385H123.392C123.464 16.0134 123.823 16.8566 124.47 17.4681C125.135 18.0797 125.934 18.3855 126.868 18.3855C127.569 18.3855 128.153 18.228 128.62 17.9129C129.105 17.5794 129.464 17.1531 129.698 16.6341H133.2C132.949 17.5052 132.527 18.3021 131.934 19.0249C131.359 19.7291 130.641 20.285 129.779 20.6928C128.934 21.1005 127.973 21.3043 126.895 21.3043ZM126.922 9.74016C126.078 9.74016 125.332 9.9904 124.686 10.4908C124.039 10.9726 123.626 11.7138 123.446 12.7146H130.102C130.048 11.8065 129.725 11.0838 129.132 10.5463C128.539 10.0089 127.803 9.74016 126.922 9.74016Z" fill="#969FA4"/>
<path d="M136.506 20.9707V7.18276H139.577L139.9 9.76798C140.385 8.87849 141.042 8.17427 141.868 7.65532C142.712 7.11789 143.7 6.84918 144.832 6.84918V10.6019H143.862C143.107 10.6019 142.434 10.7224 141.841 10.9633C141.248 11.2042 140.781 11.6213 140.439 12.2142C140.116 12.8073 139.954 13.632 139.954 14.6883V20.9707H136.506Z" fill="#969FA4"/>
<path d="M27.8987 3.33888L9.82054 22.2307C9.70419 22.3523 9.50081 22.2673 9.50295 22.0979L9.61977 12.8205C9.6206 12.7519 9.65839 12.6893 9.71825 12.6573L27.6796 3.04297C27.8657 2.94336 28.0452 3.18581 27.8987 3.33888Z" fill="#969FA4" fill-opacity="0.8"/>
<path d="M28.7687 1.82691L28.5299 2.16953L8.00033 13.2756L0.504985 8.30005C0.330103 8.17861 0.377695 7.90093 0.589931 7.86133L28.7687 1.82691Z" fill="#969FA4"/>
<path fill-rule="evenodd" clip-rule="evenodd" d="M29.0767 1.62103C29.1603 1.74973 29.1576 1.91717 29.0699 2.04302L28.831 2.38565C28.7978 2.43332 28.754 2.47248 28.7032 2.49997L8.17365 13.6061C8.05441 13.6706 7.90985 13.6641 7.79676 13.5889L0.301434 8.61345C0.299265 8.61194 0.297105 8.61053 0.294964 8.60902C-0.124537 8.31758 -0.0456777 7.60356 0.516499 7.49409L28.6914 1.46052C28.8402 1.42865 28.9931 1.49234 29.0767 1.62103ZM0.971194 8.16239L8.01876 12.8407L26.9503 2.59902L0.971194 8.16239Z" fill="#969FA4"/>
<path fill-rule="evenodd" clip-rule="evenodd" d="M29.1174 1.94898C29.1774 1.77365 29.1016 1.58025 28.9393 1.49431C28.7769 1.40837 28.5769 1.45582 28.4691 1.60584L28.2802 1.86862L7.71876 13.2069C7.57746 13.2847 7.50215 13.4462 7.53231 13.6062L9.12289 22.0315C9.15389 22.1955 9.28811 22.3189 9.45222 22.3342C9.61623 22.3495 9.77056 22.2529 9.8305 22.0975L12.2719 15.7677L28.7926 2.71417C28.8489 2.66975 28.8911 2.6098 28.9145 2.54155L29.1174 1.94898Z" fill="url(#paint0_linear_58639_4)"/>
<path d="M28.7678 1.82628L22.5891 21.8507C22.5413 21.9991 22.3615 22.0651 22.2296 21.9827L14.1945 16.9468L12.4876 15.7826L28.2587 2.5041C28.455 2.3389 28.6153 2.13433 28.7296 1.90329L28.7678 1.82628Z" fill="#969FA4"/>
<path fill-rule="evenodd" clip-rule="evenodd" d="M28.9067 1.479C29.0853 1.55207 29.1787 1.7518 29.1211 1.93803L22.9411 21.9669C22.8181 22.3485 22.3693 22.5097 22.036 22.3016L14.0004 17.2653C13.9963 17.2628 13.9923 17.2601 13.9884 17.2575L12.2815 16.0932C12.1849 16.0273 12.1246 15.9193 12.1187 15.8014C12.1129 15.6837 12.1621 15.5699 12.2517 15.4945L28.0229 2.21608C28.1798 2.08391 28.3081 1.92026 28.3996 1.73543L28.4376 1.65842C28.524 1.484 28.7281 1.40593 28.9067 1.479ZM27.938 3.26162L13.1039 15.7511L14.3955 16.6321L22.2864 21.5776L27.938 3.26162Z" fill="#969FA4"/>
<defs>
<linearGradient id="paint0_linear_58639_4" x1="99.3989" y1="-3.00951" x2="95.9014" y2="37.8012" gradientUnits="userSpaceOnUse">
<stop offset="0.0001" stop-color="#ABB3B7"/>
<stop offset="1" stop-color="#BBD3DF"/>
</linearGradient>
</defs>
</svg>
